%TF.GenerationSoftware,KiCad,Pcbnew,10.0.5*%
%TF.CreationDate,2026-09-20T13:48:39+05:30*%
%TF.ProjectId,project1,70726f6a-6563-4743-912e-6b696361645f,rev?*%
%TF.SameCoordinates,Original*%
%TF.FileFunction,Soldermask,Top*%
%TF.FilePolarity,Negative*%
%FSLAX46Y46*%
G04 Gerber Fmt 4.6, Leading zero omitted, Abs format (unit mm)*
G04 Created by KiCad (PCBNEW 10.0.5) date 2026-09-20 13:48:39*
%MOMM*%
%LPD*%
G01*
G04 APERTURE LIST*
G04 Aperture macros list*
%AMRoundRect*
0 Rectangle with rounded corners*
0 $1 Rounding radius*
0 $2 $3 $4 $5 $6 $7 $8 $9 X,Y pos of 4 corners*
0 Add a 4 corners polygon primitive as box body*
4,1,4,$2,$3,$4,$5,$6,$7,$8,$9,$2,$3,0*
0 Add four circle primitives for the rounded corners*
1,1,$1+$1,$2,$3*
1,1,$1+$1,$4,$5*
1,1,$1+$1,$6,$7*
1,1,$1+$1,$8,$9*
0 Add four rect primitives between the rounded corners*
20,1,$1+$1,$2,$3,$4,$5,0*
20,1,$1+$1,$4,$5,$6,$7,0*
20,1,$1+$1,$6,$7,$8,$9,0*
20,1,$1+$1,$8,$9,$2,$3,0*%
G04 Aperture macros list end*
%ADD10R,1.700000X1.700000*%
%ADD11C,1.700000*%
%ADD12C,1.400000*%
%ADD13R,1.905000X2.000000*%
%ADD14O,1.905000X2.000000*%
%ADD15RoundRect,0.250000X0.750000X0.750000X-0.750000X0.750000X-0.750000X-0.750000X0.750000X-0.750000X0*%
%ADD16C,2.000000*%
%ADD17R,1.800000X1.800000*%
%ADD18C,1.800000*%
%ADD19C,0.900000*%
%ADD20RoundRect,0.250000X-0.375000X-1.000000X0.375000X-1.000000X0.375000X1.000000X-0.375000X1.000000X0*%
%ADD21C,1.600000*%
%ADD22R,3.500000X3.500000*%
%ADD23RoundRect,0.750000X-0.750000X-1.000000X0.750000X-1.000000X0.750000X1.000000X-0.750000X1.000000X0*%
%ADD24RoundRect,0.875000X-0.875000X-0.875000X0.875000X-0.875000X0.875000X0.875000X-0.875000X0.875000X0*%
G04 APERTURE END LIST*
D10*
%TO.C,J3*%
X83210000Y-59500000D03*
D11*
X85750000Y-59500000D03*
X88290000Y-59500000D03*
%TD*%
D12*
%TO.C,R1*%
X89200000Y-92250000D03*
X96820000Y-92250000D03*
%TD*%
D13*
%TO.C,U1*%
X83290000Y-70250000D03*
D14*
X80750000Y-70250000D03*
X78210000Y-70250000D03*
%TD*%
D10*
%TO.C,J2*%
X101000000Y-106790000D03*
D11*
X101000000Y-104250000D03*
%TD*%
D13*
%TO.C,U2*%
X83250000Y-91500000D03*
D14*
X80710000Y-91500000D03*
X78170000Y-91500000D03*
%TD*%
D12*
%TO.C,R4*%
X96820000Y-95750000D03*
X89200000Y-95750000D03*
%TD*%
%TO.C,R3*%
X97000000Y-80750000D03*
X89380000Y-80750000D03*
%TD*%
D15*
%TO.C,J5*%
X95790000Y-106000000D03*
D16*
X93250000Y-106000000D03*
%TD*%
D17*
%TO.C,D1*%
X93280000Y-86000000D03*
D18*
X95820000Y-86000000D03*
%TD*%
D19*
%TO.C,SW1*%
X89370000Y-72250000D03*
X96170000Y-72250000D03*
D20*
X90270000Y-69500000D03*
X92770000Y-69500000D03*
X95270000Y-69500000D03*
%TD*%
D21*
%TO.C,C3*%
X80750000Y-99750000D03*
X83250000Y-99750000D03*
%TD*%
D10*
%TO.C,J1*%
X101000000Y-59210000D03*
D11*
X101000000Y-61750000D03*
%TD*%
D22*
%TO.C,J8*%
X85500000Y-81000000D03*
D23*
X79500000Y-81000000D03*
D24*
X82500000Y-85700000D03*
%TD*%
D21*
%TO.C,C2*%
X76750000Y-64500000D03*
X79250000Y-64500000D03*
%TD*%
%TO.C,C1*%
X85000000Y-64500000D03*
X82500000Y-64500000D03*
%TD*%
D15*
%TO.C,J7*%
X95775000Y-61282500D03*
D16*
X93235000Y-61282500D03*
%TD*%
D10*
%TO.C,J4*%
X83710000Y-107250000D03*
D11*
X86250000Y-107250000D03*
X88790000Y-107250000D03*
%TD*%
M02*
