%TF.GenerationSoftware,KiCad,Pcbnew,10.0.5*%
%TF.CreationDate,2026-09-20T13:48:39+05:30*%
%TF.ProjectId,project1,70726f6a-6563-4743-912e-6b696361645f,rev?*%
%TF.SameCoordinates,Original*%
%TF.FileFunction,Legend,Bot*%
%TF.FilePolarity,Positive*%
%FSLAX46Y46*%
G04 Gerber Fmt 4.6, Leading zero omitted, Abs format (unit mm)*
G04 Created by KiCad (PCBNEW 10.0.5) date 2026-09-20 13:48:39*
%MOMM*%
%LPD*%
G01*
G04 APERTURE LIST*
%ADD10C,0.100000*%
%ADD11C,0.150000*%
G04 APERTURE END LIST*
D10*
X91696115Y-73872419D02*
X91696115Y-72872419D01*
X91696115Y-73253371D02*
X91600877Y-73205752D01*
X91600877Y-73205752D02*
X91410401Y-73205752D01*
X91410401Y-73205752D02*
X91315163Y-73253371D01*
X91315163Y-73253371D02*
X91267544Y-73300990D01*
X91267544Y-73300990D02*
X91219925Y-73396228D01*
X91219925Y-73396228D02*
X91219925Y-73681942D01*
X91219925Y-73681942D02*
X91267544Y-73777180D01*
X91267544Y-73777180D02*
X91315163Y-73824800D01*
X91315163Y-73824800D02*
X91410401Y-73872419D01*
X91410401Y-73872419D02*
X91600877Y-73872419D01*
X91600877Y-73872419D02*
X91696115Y-73824800D01*
X90791353Y-73872419D02*
X90791353Y-73205752D01*
X90791353Y-73396228D02*
X90743734Y-73300990D01*
X90743734Y-73300990D02*
X90696115Y-73253371D01*
X90696115Y-73253371D02*
X90600877Y-73205752D01*
X90600877Y-73205752D02*
X90505639Y-73205752D01*
X89791353Y-73824800D02*
X89886591Y-73872419D01*
X89886591Y-73872419D02*
X90077067Y-73872419D01*
X90077067Y-73872419D02*
X90172305Y-73824800D01*
X90172305Y-73824800D02*
X90219924Y-73729561D01*
X90219924Y-73729561D02*
X90219924Y-73348609D01*
X90219924Y-73348609D02*
X90172305Y-73253371D01*
X90172305Y-73253371D02*
X90077067Y-73205752D01*
X90077067Y-73205752D02*
X89886591Y-73205752D01*
X89886591Y-73205752D02*
X89791353Y-73253371D01*
X89791353Y-73253371D02*
X89743734Y-73348609D01*
X89743734Y-73348609D02*
X89743734Y-73443847D01*
X89743734Y-73443847D02*
X90219924Y-73539085D01*
X88886591Y-73872419D02*
X88886591Y-73348609D01*
X88886591Y-73348609D02*
X88934210Y-73253371D01*
X88934210Y-73253371D02*
X89029448Y-73205752D01*
X89029448Y-73205752D02*
X89219924Y-73205752D01*
X89219924Y-73205752D02*
X89315162Y-73253371D01*
X88886591Y-73824800D02*
X88981829Y-73872419D01*
X88981829Y-73872419D02*
X89219924Y-73872419D01*
X89219924Y-73872419D02*
X89315162Y-73824800D01*
X89315162Y-73824800D02*
X89362781Y-73729561D01*
X89362781Y-73729561D02*
X89362781Y-73634323D01*
X89362781Y-73634323D02*
X89315162Y-73539085D01*
X89315162Y-73539085D02*
X89219924Y-73491466D01*
X89219924Y-73491466D02*
X88981829Y-73491466D01*
X88981829Y-73491466D02*
X88886591Y-73443847D01*
X87981829Y-73872419D02*
X87981829Y-72872419D01*
X87981829Y-73824800D02*
X88077067Y-73872419D01*
X88077067Y-73872419D02*
X88267543Y-73872419D01*
X88267543Y-73872419D02*
X88362781Y-73824800D01*
X88362781Y-73824800D02*
X88410400Y-73777180D01*
X88410400Y-73777180D02*
X88458019Y-73681942D01*
X88458019Y-73681942D02*
X88458019Y-73396228D01*
X88458019Y-73396228D02*
X88410400Y-73300990D01*
X88410400Y-73300990D02*
X88362781Y-73253371D01*
X88362781Y-73253371D02*
X88267543Y-73205752D01*
X88267543Y-73205752D02*
X88077067Y-73205752D01*
X88077067Y-73205752D02*
X87981829Y-73253371D01*
X87505638Y-73872419D02*
X87505638Y-72872419D01*
X87505638Y-73253371D02*
X87410400Y-73205752D01*
X87410400Y-73205752D02*
X87219924Y-73205752D01*
X87219924Y-73205752D02*
X87124686Y-73253371D01*
X87124686Y-73253371D02*
X87077067Y-73300990D01*
X87077067Y-73300990D02*
X87029448Y-73396228D01*
X87029448Y-73396228D02*
X87029448Y-73681942D01*
X87029448Y-73681942D02*
X87077067Y-73777180D01*
X87077067Y-73777180D02*
X87124686Y-73824800D01*
X87124686Y-73824800D02*
X87219924Y-73872419D01*
X87219924Y-73872419D02*
X87410400Y-73872419D01*
X87410400Y-73872419D02*
X87505638Y-73824800D01*
X86458019Y-73872419D02*
X86553257Y-73824800D01*
X86553257Y-73824800D02*
X86600876Y-73777180D01*
X86600876Y-73777180D02*
X86648495Y-73681942D01*
X86648495Y-73681942D02*
X86648495Y-73396228D01*
X86648495Y-73396228D02*
X86600876Y-73300990D01*
X86600876Y-73300990D02*
X86553257Y-73253371D01*
X86553257Y-73253371D02*
X86458019Y-73205752D01*
X86458019Y-73205752D02*
X86315162Y-73205752D01*
X86315162Y-73205752D02*
X86219924Y-73253371D01*
X86219924Y-73253371D02*
X86172305Y-73300990D01*
X86172305Y-73300990D02*
X86124686Y-73396228D01*
X86124686Y-73396228D02*
X86124686Y-73681942D01*
X86124686Y-73681942D02*
X86172305Y-73777180D01*
X86172305Y-73777180D02*
X86219924Y-73824800D01*
X86219924Y-73824800D02*
X86315162Y-73872419D01*
X86315162Y-73872419D02*
X86458019Y-73872419D01*
X85267543Y-73872419D02*
X85267543Y-73348609D01*
X85267543Y-73348609D02*
X85315162Y-73253371D01*
X85315162Y-73253371D02*
X85410400Y-73205752D01*
X85410400Y-73205752D02*
X85600876Y-73205752D01*
X85600876Y-73205752D02*
X85696114Y-73253371D01*
X85267543Y-73824800D02*
X85362781Y-73872419D01*
X85362781Y-73872419D02*
X85600876Y-73872419D01*
X85600876Y-73872419D02*
X85696114Y-73824800D01*
X85696114Y-73824800D02*
X85743733Y-73729561D01*
X85743733Y-73729561D02*
X85743733Y-73634323D01*
X85743733Y-73634323D02*
X85696114Y-73539085D01*
X85696114Y-73539085D02*
X85600876Y-73491466D01*
X85600876Y-73491466D02*
X85362781Y-73491466D01*
X85362781Y-73491466D02*
X85267543Y-73443847D01*
X84791352Y-73872419D02*
X84791352Y-73205752D01*
X84791352Y-73396228D02*
X84743733Y-73300990D01*
X84743733Y-73300990D02*
X84696114Y-73253371D01*
X84696114Y-73253371D02*
X84600876Y-73205752D01*
X84600876Y-73205752D02*
X84505638Y-73205752D01*
X83743733Y-73872419D02*
X83743733Y-72872419D01*
X83743733Y-73824800D02*
X83838971Y-73872419D01*
X83838971Y-73872419D02*
X84029447Y-73872419D01*
X84029447Y-73872419D02*
X84124685Y-73824800D01*
X84124685Y-73824800D02*
X84172304Y-73777180D01*
X84172304Y-73777180D02*
X84219923Y-73681942D01*
X84219923Y-73681942D02*
X84219923Y-73396228D01*
X84219923Y-73396228D02*
X84172304Y-73300990D01*
X84172304Y-73300990D02*
X84124685Y-73253371D01*
X84124685Y-73253371D02*
X84029447Y-73205752D01*
X84029447Y-73205752D02*
X83838971Y-73205752D01*
X83838971Y-73205752D02*
X83743733Y-73253371D01*
X82505637Y-73205752D02*
X82505637Y-74205752D01*
X82505637Y-73253371D02*
X82410399Y-73205752D01*
X82410399Y-73205752D02*
X82219923Y-73205752D01*
X82219923Y-73205752D02*
X82124685Y-73253371D01*
X82124685Y-73253371D02*
X82077066Y-73300990D01*
X82077066Y-73300990D02*
X82029447Y-73396228D01*
X82029447Y-73396228D02*
X82029447Y-73681942D01*
X82029447Y-73681942D02*
X82077066Y-73777180D01*
X82077066Y-73777180D02*
X82124685Y-73824800D01*
X82124685Y-73824800D02*
X82219923Y-73872419D01*
X82219923Y-73872419D02*
X82410399Y-73872419D01*
X82410399Y-73872419D02*
X82505637Y-73824800D01*
X81458018Y-73872419D02*
X81553256Y-73824800D01*
X81553256Y-73824800D02*
X81600875Y-73777180D01*
X81600875Y-73777180D02*
X81648494Y-73681942D01*
X81648494Y-73681942D02*
X81648494Y-73396228D01*
X81648494Y-73396228D02*
X81600875Y-73300990D01*
X81600875Y-73300990D02*
X81553256Y-73253371D01*
X81553256Y-73253371D02*
X81458018Y-73205752D01*
X81458018Y-73205752D02*
X81315161Y-73205752D01*
X81315161Y-73205752D02*
X81219923Y-73253371D01*
X81219923Y-73253371D02*
X81172304Y-73300990D01*
X81172304Y-73300990D02*
X81124685Y-73396228D01*
X81124685Y-73396228D02*
X81124685Y-73681942D01*
X81124685Y-73681942D02*
X81172304Y-73777180D01*
X81172304Y-73777180D02*
X81219923Y-73824800D01*
X81219923Y-73824800D02*
X81315161Y-73872419D01*
X81315161Y-73872419D02*
X81458018Y-73872419D01*
X80791351Y-73205752D02*
X80600875Y-73872419D01*
X80600875Y-73872419D02*
X80410399Y-73396228D01*
X80410399Y-73396228D02*
X80219923Y-73872419D01*
X80219923Y-73872419D02*
X80029447Y-73205752D01*
X79267542Y-73824800D02*
X79362780Y-73872419D01*
X79362780Y-73872419D02*
X79553256Y-73872419D01*
X79553256Y-73872419D02*
X79648494Y-73824800D01*
X79648494Y-73824800D02*
X79696113Y-73729561D01*
X79696113Y-73729561D02*
X79696113Y-73348609D01*
X79696113Y-73348609D02*
X79648494Y-73253371D01*
X79648494Y-73253371D02*
X79553256Y-73205752D01*
X79553256Y-73205752D02*
X79362780Y-73205752D01*
X79362780Y-73205752D02*
X79267542Y-73253371D01*
X79267542Y-73253371D02*
X79219923Y-73348609D01*
X79219923Y-73348609D02*
X79219923Y-73443847D01*
X79219923Y-73443847D02*
X79696113Y-73539085D01*
X78791351Y-73872419D02*
X78791351Y-73205752D01*
X78791351Y-73396228D02*
X78743732Y-73300990D01*
X78743732Y-73300990D02*
X78696113Y-73253371D01*
X78696113Y-73253371D02*
X78600875Y-73205752D01*
X78600875Y-73205752D02*
X78505637Y-73205752D01*
X77458017Y-73824800D02*
X77362779Y-73872419D01*
X77362779Y-73872419D02*
X77172303Y-73872419D01*
X77172303Y-73872419D02*
X77077065Y-73824800D01*
X77077065Y-73824800D02*
X77029446Y-73729561D01*
X77029446Y-73729561D02*
X77029446Y-73681942D01*
X77029446Y-73681942D02*
X77077065Y-73586704D01*
X77077065Y-73586704D02*
X77172303Y-73539085D01*
X77172303Y-73539085D02*
X77315160Y-73539085D01*
X77315160Y-73539085D02*
X77410398Y-73491466D01*
X77410398Y-73491466D02*
X77458017Y-73396228D01*
X77458017Y-73396228D02*
X77458017Y-73348609D01*
X77458017Y-73348609D02*
X77410398Y-73253371D01*
X77410398Y-73253371D02*
X77315160Y-73205752D01*
X77315160Y-73205752D02*
X77172303Y-73205752D01*
X77172303Y-73205752D02*
X77077065Y-73253371D01*
X76172303Y-73205752D02*
X76172303Y-73872419D01*
X76600874Y-73205752D02*
X76600874Y-73729561D01*
X76600874Y-73729561D02*
X76553255Y-73824800D01*
X76553255Y-73824800D02*
X76458017Y-73872419D01*
X76458017Y-73872419D02*
X76315160Y-73872419D01*
X76315160Y-73872419D02*
X76219922Y-73824800D01*
X76219922Y-73824800D02*
X76172303Y-73777180D01*
X75696112Y-73205752D02*
X75696112Y-74205752D01*
X75696112Y-73253371D02*
X75600874Y-73205752D01*
X75600874Y-73205752D02*
X75410398Y-73205752D01*
X75410398Y-73205752D02*
X75315160Y-73253371D01*
X75315160Y-73253371D02*
X75267541Y-73300990D01*
X75267541Y-73300990D02*
X75219922Y-73396228D01*
X75219922Y-73396228D02*
X75219922Y-73681942D01*
X75219922Y-73681942D02*
X75267541Y-73777180D01*
X75267541Y-73777180D02*
X75315160Y-73824800D01*
X75315160Y-73824800D02*
X75410398Y-73872419D01*
X75410398Y-73872419D02*
X75600874Y-73872419D01*
X75600874Y-73872419D02*
X75696112Y-73824800D01*
X74791350Y-73205752D02*
X74791350Y-74205752D01*
X74791350Y-73253371D02*
X74696112Y-73205752D01*
X74696112Y-73205752D02*
X74505636Y-73205752D01*
X74505636Y-73205752D02*
X74410398Y-73253371D01*
X74410398Y-73253371D02*
X74362779Y-73300990D01*
X74362779Y-73300990D02*
X74315160Y-73396228D01*
X74315160Y-73396228D02*
X74315160Y-73681942D01*
X74315160Y-73681942D02*
X74362779Y-73777180D01*
X74362779Y-73777180D02*
X74410398Y-73824800D01*
X74410398Y-73824800D02*
X74505636Y-73872419D01*
X74505636Y-73872419D02*
X74696112Y-73872419D01*
X74696112Y-73872419D02*
X74791350Y-73824800D01*
X73743731Y-73872419D02*
X73838969Y-73824800D01*
X73838969Y-73824800D02*
X73886588Y-73729561D01*
X73886588Y-73729561D02*
X73886588Y-72872419D01*
X73458016Y-73205752D02*
X73219921Y-73872419D01*
X72981826Y-73205752D02*
X73219921Y-73872419D01*
X73219921Y-73872419D02*
X73315159Y-74110514D01*
X73315159Y-74110514D02*
X73362778Y-74158133D01*
X73362778Y-74158133D02*
X73458016Y-74205752D01*
D11*
X87416666Y-109454819D02*
X87416666Y-110169104D01*
X87416666Y-110169104D02*
X87369047Y-110311961D01*
X87369047Y-110311961D02*
X87273809Y-110407200D01*
X87273809Y-110407200D02*
X87130952Y-110454819D01*
X87130952Y-110454819D02*
X87035714Y-110454819D01*
X88369047Y-109454819D02*
X87892857Y-109454819D01*
X87892857Y-109454819D02*
X87845238Y-109931009D01*
X87845238Y-109931009D02*
X87892857Y-109883390D01*
X87892857Y-109883390D02*
X87988095Y-109835771D01*
X87988095Y-109835771D02*
X88226190Y-109835771D01*
X88226190Y-109835771D02*
X88321428Y-109883390D01*
X88321428Y-109883390D02*
X88369047Y-109931009D01*
X88369047Y-109931009D02*
X88416666Y-110026247D01*
X88416666Y-110026247D02*
X88416666Y-110264342D01*
X88416666Y-110264342D02*
X88369047Y-110359580D01*
X88369047Y-110359580D02*
X88321428Y-110407200D01*
X88321428Y-110407200D02*
X88226190Y-110454819D01*
X88226190Y-110454819D02*
X87988095Y-110454819D01*
X87988095Y-110454819D02*
X87892857Y-110407200D01*
X87892857Y-110407200D02*
X87845238Y-110359580D01*
M02*
