%TF.GenerationSoftware,KiCad,Pcbnew,10.0.5*%
%TF.CreationDate,2026-09-20T13:48:39+05:30*%
%TF.ProjectId,project1,70726f6a-6563-4743-912e-6b696361645f,rev?*%
%TF.SameCoordinates,Original*%
%TF.FileFunction,Legend,Top*%
%TF.FilePolarity,Positive*%
%FSLAX46Y46*%
G04 Gerber Fmt 4.6, Leading zero omitted, Abs format (unit mm)*
G04 Created by KiCad (PCBNEW 10.0.5) date 2026-09-20 13:48:39*
%MOMM*%
%LPD*%
G01*
G04 APERTURE LIST*
%ADD10C,0.150000*%
%ADD11C,0.125000*%
%ADD12C,0.120000*%
G04 APERTURE END LIST*
D10*
X79894819Y-59833333D02*
X80609104Y-59833333D01*
X80609104Y-59833333D02*
X80751961Y-59880952D01*
X80751961Y-59880952D02*
X80847200Y-59976190D01*
X80847200Y-59976190D02*
X80894819Y-60119047D01*
X80894819Y-60119047D02*
X80894819Y-60214285D01*
X79894819Y-59452380D02*
X79894819Y-58833333D01*
X79894819Y-58833333D02*
X80275771Y-59166666D01*
X80275771Y-59166666D02*
X80275771Y-59023809D01*
X80275771Y-59023809D02*
X80323390Y-58928571D01*
X80323390Y-58928571D02*
X80371009Y-58880952D01*
X80371009Y-58880952D02*
X80466247Y-58833333D01*
X80466247Y-58833333D02*
X80704342Y-58833333D01*
X80704342Y-58833333D02*
X80799580Y-58880952D01*
X80799580Y-58880952D02*
X80847200Y-58928571D01*
X80847200Y-58928571D02*
X80894819Y-59023809D01*
X80894819Y-59023809D02*
X80894819Y-59309523D01*
X80894819Y-59309523D02*
X80847200Y-59404761D01*
X80847200Y-59404761D02*
X80799580Y-59452380D01*
X72690475Y-57609580D02*
X72642856Y-57657200D01*
X72642856Y-57657200D02*
X72499999Y-57704819D01*
X72499999Y-57704819D02*
X72404761Y-57704819D01*
X72404761Y-57704819D02*
X72261904Y-57657200D01*
X72261904Y-57657200D02*
X72166666Y-57561961D01*
X72166666Y-57561961D02*
X72119047Y-57466723D01*
X72119047Y-57466723D02*
X72071428Y-57276247D01*
X72071428Y-57276247D02*
X72071428Y-57133390D01*
X72071428Y-57133390D02*
X72119047Y-56942914D01*
X72119047Y-56942914D02*
X72166666Y-56847676D01*
X72166666Y-56847676D02*
X72261904Y-56752438D01*
X72261904Y-56752438D02*
X72404761Y-56704819D01*
X72404761Y-56704819D02*
X72499999Y-56704819D01*
X72499999Y-56704819D02*
X72642856Y-56752438D01*
X72642856Y-56752438D02*
X72690475Y-56800057D01*
X73261904Y-57704819D02*
X73166666Y-57657200D01*
X73166666Y-57657200D02*
X73119047Y-57609580D01*
X73119047Y-57609580D02*
X73071428Y-57514342D01*
X73071428Y-57514342D02*
X73071428Y-57228628D01*
X73071428Y-57228628D02*
X73119047Y-57133390D01*
X73119047Y-57133390D02*
X73166666Y-57085771D01*
X73166666Y-57085771D02*
X73261904Y-57038152D01*
X73261904Y-57038152D02*
X73404761Y-57038152D01*
X73404761Y-57038152D02*
X73499999Y-57085771D01*
X73499999Y-57085771D02*
X73547618Y-57133390D01*
X73547618Y-57133390D02*
X73595237Y-57228628D01*
X73595237Y-57228628D02*
X73595237Y-57514342D01*
X73595237Y-57514342D02*
X73547618Y-57609580D01*
X73547618Y-57609580D02*
X73499999Y-57657200D01*
X73499999Y-57657200D02*
X73404761Y-57704819D01*
X73404761Y-57704819D02*
X73261904Y-57704819D01*
X74023809Y-57038152D02*
X74023809Y-57704819D01*
X74023809Y-57133390D02*
X74071428Y-57085771D01*
X74071428Y-57085771D02*
X74166666Y-57038152D01*
X74166666Y-57038152D02*
X74309523Y-57038152D01*
X74309523Y-57038152D02*
X74404761Y-57085771D01*
X74404761Y-57085771D02*
X74452380Y-57181009D01*
X74452380Y-57181009D02*
X74452380Y-57704819D01*
X74928571Y-57038152D02*
X74928571Y-57704819D01*
X74928571Y-57133390D02*
X74976190Y-57085771D01*
X74976190Y-57085771D02*
X75071428Y-57038152D01*
X75071428Y-57038152D02*
X75214285Y-57038152D01*
X75214285Y-57038152D02*
X75309523Y-57085771D01*
X75309523Y-57085771D02*
X75357142Y-57181009D01*
X75357142Y-57181009D02*
X75357142Y-57704819D01*
X75595238Y-57800057D02*
X76357142Y-57800057D01*
X76785714Y-56704819D02*
X76880952Y-56704819D01*
X76880952Y-56704819D02*
X76976190Y-56752438D01*
X76976190Y-56752438D02*
X77023809Y-56800057D01*
X77023809Y-56800057D02*
X77071428Y-56895295D01*
X77071428Y-56895295D02*
X77119047Y-57085771D01*
X77119047Y-57085771D02*
X77119047Y-57323866D01*
X77119047Y-57323866D02*
X77071428Y-57514342D01*
X77071428Y-57514342D02*
X77023809Y-57609580D01*
X77023809Y-57609580D02*
X76976190Y-57657200D01*
X76976190Y-57657200D02*
X76880952Y-57704819D01*
X76880952Y-57704819D02*
X76785714Y-57704819D01*
X76785714Y-57704819D02*
X76690476Y-57657200D01*
X76690476Y-57657200D02*
X76642857Y-57609580D01*
X76642857Y-57609580D02*
X76595238Y-57514342D01*
X76595238Y-57514342D02*
X76547619Y-57323866D01*
X76547619Y-57323866D02*
X76547619Y-57085771D01*
X76547619Y-57085771D02*
X76595238Y-56895295D01*
X76595238Y-56895295D02*
X76642857Y-56800057D01*
X76642857Y-56800057D02*
X76690476Y-56752438D01*
X76690476Y-56752438D02*
X76785714Y-56704819D01*
X78071428Y-57704819D02*
X77500000Y-57704819D01*
X77785714Y-57704819D02*
X77785714Y-56704819D01*
X77785714Y-56704819D02*
X77690476Y-56847676D01*
X77690476Y-56847676D02*
X77595238Y-56942914D01*
X77595238Y-56942914D02*
X77500000Y-56990533D01*
X78404762Y-57704819D02*
X78928571Y-57038152D01*
X78404762Y-57038152D02*
X78928571Y-57704819D01*
X79500000Y-56704819D02*
X79595238Y-56704819D01*
X79595238Y-56704819D02*
X79690476Y-56752438D01*
X79690476Y-56752438D02*
X79738095Y-56800057D01*
X79738095Y-56800057D02*
X79785714Y-56895295D01*
X79785714Y-56895295D02*
X79833333Y-57085771D01*
X79833333Y-57085771D02*
X79833333Y-57323866D01*
X79833333Y-57323866D02*
X79785714Y-57514342D01*
X79785714Y-57514342D02*
X79738095Y-57609580D01*
X79738095Y-57609580D02*
X79690476Y-57657200D01*
X79690476Y-57657200D02*
X79595238Y-57704819D01*
X79595238Y-57704819D02*
X79500000Y-57704819D01*
X79500000Y-57704819D02*
X79404762Y-57657200D01*
X79404762Y-57657200D02*
X79357143Y-57609580D01*
X79357143Y-57609580D02*
X79309524Y-57514342D01*
X79309524Y-57514342D02*
X79261905Y-57323866D01*
X79261905Y-57323866D02*
X79261905Y-57085771D01*
X79261905Y-57085771D02*
X79309524Y-56895295D01*
X79309524Y-56895295D02*
X79357143Y-56800057D01*
X79357143Y-56800057D02*
X79404762Y-56752438D01*
X79404762Y-56752438D02*
X79500000Y-56704819D01*
X80166667Y-56704819D02*
X80785714Y-56704819D01*
X80785714Y-56704819D02*
X80452381Y-57085771D01*
X80452381Y-57085771D02*
X80595238Y-57085771D01*
X80595238Y-57085771D02*
X80690476Y-57133390D01*
X80690476Y-57133390D02*
X80738095Y-57181009D01*
X80738095Y-57181009D02*
X80785714Y-57276247D01*
X80785714Y-57276247D02*
X80785714Y-57514342D01*
X80785714Y-57514342D02*
X80738095Y-57609580D01*
X80738095Y-57609580D02*
X80690476Y-57657200D01*
X80690476Y-57657200D02*
X80595238Y-57704819D01*
X80595238Y-57704819D02*
X80309524Y-57704819D01*
X80309524Y-57704819D02*
X80214286Y-57657200D01*
X80214286Y-57657200D02*
X80166667Y-57609580D01*
X80976191Y-57800057D02*
X81738095Y-57800057D01*
X81976191Y-57704819D02*
X81976191Y-56704819D01*
X81976191Y-56704819D02*
X82357143Y-56704819D01*
X82357143Y-56704819D02*
X82452381Y-56752438D01*
X82452381Y-56752438D02*
X82500000Y-56800057D01*
X82500000Y-56800057D02*
X82547619Y-56895295D01*
X82547619Y-56895295D02*
X82547619Y-57038152D01*
X82547619Y-57038152D02*
X82500000Y-57133390D01*
X82500000Y-57133390D02*
X82452381Y-57181009D01*
X82452381Y-57181009D02*
X82357143Y-57228628D01*
X82357143Y-57228628D02*
X81976191Y-57228628D01*
X82976191Y-57704819D02*
X82976191Y-57038152D01*
X82976191Y-56704819D02*
X82928572Y-56752438D01*
X82928572Y-56752438D02*
X82976191Y-56800057D01*
X82976191Y-56800057D02*
X83023810Y-56752438D01*
X83023810Y-56752438D02*
X82976191Y-56704819D01*
X82976191Y-56704819D02*
X82976191Y-56800057D01*
X83452381Y-57038152D02*
X83452381Y-57704819D01*
X83452381Y-57133390D02*
X83500000Y-57085771D01*
X83500000Y-57085771D02*
X83595238Y-57038152D01*
X83595238Y-57038152D02*
X83738095Y-57038152D01*
X83738095Y-57038152D02*
X83833333Y-57085771D01*
X83833333Y-57085771D02*
X83880952Y-57181009D01*
X83880952Y-57181009D02*
X83880952Y-57704819D01*
X92843333Y-90784819D02*
X92510000Y-90308628D01*
X92271905Y-90784819D02*
X92271905Y-89784819D01*
X92271905Y-89784819D02*
X92652857Y-89784819D01*
X92652857Y-89784819D02*
X92748095Y-89832438D01*
X92748095Y-89832438D02*
X92795714Y-89880057D01*
X92795714Y-89880057D02*
X92843333Y-89975295D01*
X92843333Y-89975295D02*
X92843333Y-90118152D01*
X92843333Y-90118152D02*
X92795714Y-90213390D01*
X92795714Y-90213390D02*
X92748095Y-90261009D01*
X92748095Y-90261009D02*
X92652857Y-90308628D01*
X92652857Y-90308628D02*
X92271905Y-90308628D01*
X93795714Y-90784819D02*
X93224286Y-90784819D01*
X93510000Y-90784819D02*
X93510000Y-89784819D01*
X93510000Y-89784819D02*
X93414762Y-89927676D01*
X93414762Y-89927676D02*
X93319524Y-90022914D01*
X93319524Y-90022914D02*
X93224286Y-90070533D01*
X93214286Y-93454819D02*
X93833333Y-93454819D01*
X93833333Y-93454819D02*
X93500000Y-93835771D01*
X93500000Y-93835771D02*
X93642857Y-93835771D01*
X93642857Y-93835771D02*
X93738095Y-93883390D01*
X93738095Y-93883390D02*
X93785714Y-93931009D01*
X93785714Y-93931009D02*
X93833333Y-94026247D01*
X93833333Y-94026247D02*
X93833333Y-94264342D01*
X93833333Y-94264342D02*
X93785714Y-94359580D01*
X93785714Y-94359580D02*
X93738095Y-94407200D01*
X93738095Y-94407200D02*
X93642857Y-94454819D01*
X93642857Y-94454819D02*
X93357143Y-94454819D01*
X93357143Y-94454819D02*
X93261905Y-94407200D01*
X93261905Y-94407200D02*
X93214286Y-94359580D01*
X94166667Y-93454819D02*
X94785714Y-93454819D01*
X94785714Y-93454819D02*
X94452381Y-93835771D01*
X94452381Y-93835771D02*
X94595238Y-93835771D01*
X94595238Y-93835771D02*
X94690476Y-93883390D01*
X94690476Y-93883390D02*
X94738095Y-93931009D01*
X94738095Y-93931009D02*
X94785714Y-94026247D01*
X94785714Y-94026247D02*
X94785714Y-94264342D01*
X94785714Y-94264342D02*
X94738095Y-94359580D01*
X94738095Y-94359580D02*
X94690476Y-94407200D01*
X94690476Y-94407200D02*
X94595238Y-94454819D01*
X94595238Y-94454819D02*
X94309524Y-94454819D01*
X94309524Y-94454819D02*
X94214286Y-94407200D01*
X94214286Y-94407200D02*
X94166667Y-94359580D01*
X95404762Y-93454819D02*
X95500000Y-93454819D01*
X95500000Y-93454819D02*
X95595238Y-93502438D01*
X95595238Y-93502438D02*
X95642857Y-93550057D01*
X95642857Y-93550057D02*
X95690476Y-93645295D01*
X95690476Y-93645295D02*
X95738095Y-93835771D01*
X95738095Y-93835771D02*
X95738095Y-94073866D01*
X95738095Y-94073866D02*
X95690476Y-94264342D01*
X95690476Y-94264342D02*
X95642857Y-94359580D01*
X95642857Y-94359580D02*
X95595238Y-94407200D01*
X95595238Y-94407200D02*
X95500000Y-94454819D01*
X95500000Y-94454819D02*
X95404762Y-94454819D01*
X95404762Y-94454819D02*
X95309524Y-94407200D01*
X95309524Y-94407200D02*
X95261905Y-94359580D01*
X95261905Y-94359580D02*
X95214286Y-94264342D01*
X95214286Y-94264342D02*
X95166667Y-94073866D01*
X95166667Y-94073866D02*
X95166667Y-93835771D01*
X95166667Y-93835771D02*
X95214286Y-93645295D01*
X95214286Y-93645295D02*
X95261905Y-93550057D01*
X95261905Y-93550057D02*
X95309524Y-93502438D01*
X95309524Y-93502438D02*
X95404762Y-93454819D01*
X75869047Y-68504819D02*
X75392857Y-68504819D01*
X75392857Y-68504819D02*
X75392857Y-67504819D01*
X76202381Y-68504819D02*
X76202381Y-67504819D01*
X76202381Y-67504819D02*
X76535714Y-68219104D01*
X76535714Y-68219104D02*
X76869047Y-67504819D01*
X76869047Y-67504819D02*
X76869047Y-68504819D01*
X77250000Y-67504819D02*
X77916666Y-67504819D01*
X77916666Y-67504819D02*
X77488095Y-68504819D01*
X78440476Y-67933390D02*
X78345238Y-67885771D01*
X78345238Y-67885771D02*
X78297619Y-67838152D01*
X78297619Y-67838152D02*
X78250000Y-67742914D01*
X78250000Y-67742914D02*
X78250000Y-67695295D01*
X78250000Y-67695295D02*
X78297619Y-67600057D01*
X78297619Y-67600057D02*
X78345238Y-67552438D01*
X78345238Y-67552438D02*
X78440476Y-67504819D01*
X78440476Y-67504819D02*
X78630952Y-67504819D01*
X78630952Y-67504819D02*
X78726190Y-67552438D01*
X78726190Y-67552438D02*
X78773809Y-67600057D01*
X78773809Y-67600057D02*
X78821428Y-67695295D01*
X78821428Y-67695295D02*
X78821428Y-67742914D01*
X78821428Y-67742914D02*
X78773809Y-67838152D01*
X78773809Y-67838152D02*
X78726190Y-67885771D01*
X78726190Y-67885771D02*
X78630952Y-67933390D01*
X78630952Y-67933390D02*
X78440476Y-67933390D01*
X78440476Y-67933390D02*
X78345238Y-67981009D01*
X78345238Y-67981009D02*
X78297619Y-68028628D01*
X78297619Y-68028628D02*
X78250000Y-68123866D01*
X78250000Y-68123866D02*
X78250000Y-68314342D01*
X78250000Y-68314342D02*
X78297619Y-68409580D01*
X78297619Y-68409580D02*
X78345238Y-68457200D01*
X78345238Y-68457200D02*
X78440476Y-68504819D01*
X78440476Y-68504819D02*
X78630952Y-68504819D01*
X78630952Y-68504819D02*
X78726190Y-68457200D01*
X78726190Y-68457200D02*
X78773809Y-68409580D01*
X78773809Y-68409580D02*
X78821428Y-68314342D01*
X78821428Y-68314342D02*
X78821428Y-68123866D01*
X78821428Y-68123866D02*
X78773809Y-68028628D01*
X78773809Y-68028628D02*
X78726190Y-67981009D01*
X78726190Y-67981009D02*
X78630952Y-67933390D01*
X79440476Y-67504819D02*
X79535714Y-67504819D01*
X79535714Y-67504819D02*
X79630952Y-67552438D01*
X79630952Y-67552438D02*
X79678571Y-67600057D01*
X79678571Y-67600057D02*
X79726190Y-67695295D01*
X79726190Y-67695295D02*
X79773809Y-67885771D01*
X79773809Y-67885771D02*
X79773809Y-68123866D01*
X79773809Y-68123866D02*
X79726190Y-68314342D01*
X79726190Y-68314342D02*
X79678571Y-68409580D01*
X79678571Y-68409580D02*
X79630952Y-68457200D01*
X79630952Y-68457200D02*
X79535714Y-68504819D01*
X79535714Y-68504819D02*
X79440476Y-68504819D01*
X79440476Y-68504819D02*
X79345238Y-68457200D01*
X79345238Y-68457200D02*
X79297619Y-68409580D01*
X79297619Y-68409580D02*
X79250000Y-68314342D01*
X79250000Y-68314342D02*
X79202381Y-68123866D01*
X79202381Y-68123866D02*
X79202381Y-67885771D01*
X79202381Y-67885771D02*
X79250000Y-67695295D01*
X79250000Y-67695295D02*
X79297619Y-67600057D01*
X79297619Y-67600057D02*
X79345238Y-67552438D01*
X79345238Y-67552438D02*
X79440476Y-67504819D01*
X80678571Y-67504819D02*
X80202381Y-67504819D01*
X80202381Y-67504819D02*
X80154762Y-67981009D01*
X80154762Y-67981009D02*
X80202381Y-67933390D01*
X80202381Y-67933390D02*
X80297619Y-67885771D01*
X80297619Y-67885771D02*
X80535714Y-67885771D01*
X80535714Y-67885771D02*
X80630952Y-67933390D01*
X80630952Y-67933390D02*
X80678571Y-67981009D01*
X80678571Y-67981009D02*
X80726190Y-68076247D01*
X80726190Y-68076247D02*
X80726190Y-68314342D01*
X80726190Y-68314342D02*
X80678571Y-68409580D01*
X80678571Y-68409580D02*
X80630952Y-68457200D01*
X80630952Y-68457200D02*
X80535714Y-68504819D01*
X80535714Y-68504819D02*
X80297619Y-68504819D01*
X80297619Y-68504819D02*
X80202381Y-68457200D01*
X80202381Y-68457200D02*
X80154762Y-68409580D01*
X80916667Y-68600057D02*
X81678571Y-68600057D01*
X81773810Y-67504819D02*
X82345238Y-67504819D01*
X82059524Y-68504819D02*
X82059524Y-67504819D01*
X82869048Y-67504819D02*
X83059524Y-67504819D01*
X83059524Y-67504819D02*
X83154762Y-67552438D01*
X83154762Y-67552438D02*
X83250000Y-67647676D01*
X83250000Y-67647676D02*
X83297619Y-67838152D01*
X83297619Y-67838152D02*
X83297619Y-68171485D01*
X83297619Y-68171485D02*
X83250000Y-68361961D01*
X83250000Y-68361961D02*
X83154762Y-68457200D01*
X83154762Y-68457200D02*
X83059524Y-68504819D01*
X83059524Y-68504819D02*
X82869048Y-68504819D01*
X82869048Y-68504819D02*
X82773810Y-68457200D01*
X82773810Y-68457200D02*
X82678572Y-68361961D01*
X82678572Y-68361961D02*
X82630953Y-68171485D01*
X82630953Y-68171485D02*
X82630953Y-67838152D01*
X82630953Y-67838152D02*
X82678572Y-67647676D01*
X82678572Y-67647676D02*
X82773810Y-67552438D01*
X82773810Y-67552438D02*
X82869048Y-67504819D01*
X83678572Y-67600057D02*
X83726191Y-67552438D01*
X83726191Y-67552438D02*
X83821429Y-67504819D01*
X83821429Y-67504819D02*
X84059524Y-67504819D01*
X84059524Y-67504819D02*
X84154762Y-67552438D01*
X84154762Y-67552438D02*
X84202381Y-67600057D01*
X84202381Y-67600057D02*
X84250000Y-67695295D01*
X84250000Y-67695295D02*
X84250000Y-67790533D01*
X84250000Y-67790533D02*
X84202381Y-67933390D01*
X84202381Y-67933390D02*
X83630953Y-68504819D01*
X83630953Y-68504819D02*
X84250000Y-68504819D01*
X84630953Y-67600057D02*
X84678572Y-67552438D01*
X84678572Y-67552438D02*
X84773810Y-67504819D01*
X84773810Y-67504819D02*
X85011905Y-67504819D01*
X85011905Y-67504819D02*
X85107143Y-67552438D01*
X85107143Y-67552438D02*
X85154762Y-67600057D01*
X85154762Y-67600057D02*
X85202381Y-67695295D01*
X85202381Y-67695295D02*
X85202381Y-67790533D01*
X85202381Y-67790533D02*
X85154762Y-67933390D01*
X85154762Y-67933390D02*
X84583334Y-68504819D01*
X84583334Y-68504819D02*
X85202381Y-68504819D01*
X85821429Y-67504819D02*
X85916667Y-67504819D01*
X85916667Y-67504819D02*
X86011905Y-67552438D01*
X86011905Y-67552438D02*
X86059524Y-67600057D01*
X86059524Y-67600057D02*
X86107143Y-67695295D01*
X86107143Y-67695295D02*
X86154762Y-67885771D01*
X86154762Y-67885771D02*
X86154762Y-68123866D01*
X86154762Y-68123866D02*
X86107143Y-68314342D01*
X86107143Y-68314342D02*
X86059524Y-68409580D01*
X86059524Y-68409580D02*
X86011905Y-68457200D01*
X86011905Y-68457200D02*
X85916667Y-68504819D01*
X85916667Y-68504819D02*
X85821429Y-68504819D01*
X85821429Y-68504819D02*
X85726191Y-68457200D01*
X85726191Y-68457200D02*
X85678572Y-68409580D01*
X85678572Y-68409580D02*
X85630953Y-68314342D01*
X85630953Y-68314342D02*
X85583334Y-68123866D01*
X85583334Y-68123866D02*
X85583334Y-67885771D01*
X85583334Y-67885771D02*
X85630953Y-67695295D01*
X85630953Y-67695295D02*
X85678572Y-67600057D01*
X85678572Y-67600057D02*
X85726191Y-67552438D01*
X85726191Y-67552438D02*
X85821429Y-67504819D01*
X100666666Y-109014819D02*
X100666666Y-109729104D01*
X100666666Y-109729104D02*
X100619047Y-109871961D01*
X100619047Y-109871961D02*
X100523809Y-109967200D01*
X100523809Y-109967200D02*
X100380952Y-110014819D01*
X100380952Y-110014819D02*
X100285714Y-110014819D01*
X101095238Y-109110057D02*
X101142857Y-109062438D01*
X101142857Y-109062438D02*
X101238095Y-109014819D01*
X101238095Y-109014819D02*
X101476190Y-109014819D01*
X101476190Y-109014819D02*
X101571428Y-109062438D01*
X101571428Y-109062438D02*
X101619047Y-109110057D01*
X101619047Y-109110057D02*
X101666666Y-109205295D01*
X101666666Y-109205295D02*
X101666666Y-109300533D01*
X101666666Y-109300533D02*
X101619047Y-109443390D01*
X101619047Y-109443390D02*
X101047619Y-110014819D01*
X101047619Y-110014819D02*
X101666666Y-110014819D01*
X98859580Y-109559524D02*
X98907200Y-109607143D01*
X98907200Y-109607143D02*
X98954819Y-109750000D01*
X98954819Y-109750000D02*
X98954819Y-109845238D01*
X98954819Y-109845238D02*
X98907200Y-109988095D01*
X98907200Y-109988095D02*
X98811961Y-110083333D01*
X98811961Y-110083333D02*
X98716723Y-110130952D01*
X98716723Y-110130952D02*
X98526247Y-110178571D01*
X98526247Y-110178571D02*
X98383390Y-110178571D01*
X98383390Y-110178571D02*
X98192914Y-110130952D01*
X98192914Y-110130952D02*
X98097676Y-110083333D01*
X98097676Y-110083333D02*
X98002438Y-109988095D01*
X98002438Y-109988095D02*
X97954819Y-109845238D01*
X97954819Y-109845238D02*
X97954819Y-109750000D01*
X97954819Y-109750000D02*
X98002438Y-109607143D01*
X98002438Y-109607143D02*
X98050057Y-109559524D01*
X98954819Y-108988095D02*
X98907200Y-109083333D01*
X98907200Y-109083333D02*
X98859580Y-109130952D01*
X98859580Y-109130952D02*
X98764342Y-109178571D01*
X98764342Y-109178571D02*
X98478628Y-109178571D01*
X98478628Y-109178571D02*
X98383390Y-109130952D01*
X98383390Y-109130952D02*
X98335771Y-109083333D01*
X98335771Y-109083333D02*
X98288152Y-108988095D01*
X98288152Y-108988095D02*
X98288152Y-108845238D01*
X98288152Y-108845238D02*
X98335771Y-108750000D01*
X98335771Y-108750000D02*
X98383390Y-108702381D01*
X98383390Y-108702381D02*
X98478628Y-108654762D01*
X98478628Y-108654762D02*
X98764342Y-108654762D01*
X98764342Y-108654762D02*
X98859580Y-108702381D01*
X98859580Y-108702381D02*
X98907200Y-108750000D01*
X98907200Y-108750000D02*
X98954819Y-108845238D01*
X98954819Y-108845238D02*
X98954819Y-108988095D01*
X98288152Y-108226190D02*
X98954819Y-108226190D01*
X98383390Y-108226190D02*
X98335771Y-108178571D01*
X98335771Y-108178571D02*
X98288152Y-108083333D01*
X98288152Y-108083333D02*
X98288152Y-107940476D01*
X98288152Y-107940476D02*
X98335771Y-107845238D01*
X98335771Y-107845238D02*
X98431009Y-107797619D01*
X98431009Y-107797619D02*
X98954819Y-107797619D01*
X98288152Y-107321428D02*
X98954819Y-107321428D01*
X98383390Y-107321428D02*
X98335771Y-107273809D01*
X98335771Y-107273809D02*
X98288152Y-107178571D01*
X98288152Y-107178571D02*
X98288152Y-107035714D01*
X98288152Y-107035714D02*
X98335771Y-106940476D01*
X98335771Y-106940476D02*
X98431009Y-106892857D01*
X98431009Y-106892857D02*
X98954819Y-106892857D01*
X99050057Y-106654762D02*
X99050057Y-105892857D01*
X97954819Y-105464285D02*
X97954819Y-105369047D01*
X97954819Y-105369047D02*
X98002438Y-105273809D01*
X98002438Y-105273809D02*
X98050057Y-105226190D01*
X98050057Y-105226190D02*
X98145295Y-105178571D01*
X98145295Y-105178571D02*
X98335771Y-105130952D01*
X98335771Y-105130952D02*
X98573866Y-105130952D01*
X98573866Y-105130952D02*
X98764342Y-105178571D01*
X98764342Y-105178571D02*
X98859580Y-105226190D01*
X98859580Y-105226190D02*
X98907200Y-105273809D01*
X98907200Y-105273809D02*
X98954819Y-105369047D01*
X98954819Y-105369047D02*
X98954819Y-105464285D01*
X98954819Y-105464285D02*
X98907200Y-105559523D01*
X98907200Y-105559523D02*
X98859580Y-105607142D01*
X98859580Y-105607142D02*
X98764342Y-105654761D01*
X98764342Y-105654761D02*
X98573866Y-105702380D01*
X98573866Y-105702380D02*
X98335771Y-105702380D01*
X98335771Y-105702380D02*
X98145295Y-105654761D01*
X98145295Y-105654761D02*
X98050057Y-105607142D01*
X98050057Y-105607142D02*
X98002438Y-105559523D01*
X98002438Y-105559523D02*
X97954819Y-105464285D01*
X98954819Y-104178571D02*
X98954819Y-104749999D01*
X98954819Y-104464285D02*
X97954819Y-104464285D01*
X97954819Y-104464285D02*
X98097676Y-104559523D01*
X98097676Y-104559523D02*
X98192914Y-104654761D01*
X98192914Y-104654761D02*
X98240533Y-104749999D01*
X98954819Y-103845237D02*
X98288152Y-103321428D01*
X98288152Y-103845237D02*
X98954819Y-103321428D01*
X97954819Y-102749999D02*
X97954819Y-102654761D01*
X97954819Y-102654761D02*
X98002438Y-102559523D01*
X98002438Y-102559523D02*
X98050057Y-102511904D01*
X98050057Y-102511904D02*
X98145295Y-102464285D01*
X98145295Y-102464285D02*
X98335771Y-102416666D01*
X98335771Y-102416666D02*
X98573866Y-102416666D01*
X98573866Y-102416666D02*
X98764342Y-102464285D01*
X98764342Y-102464285D02*
X98859580Y-102511904D01*
X98859580Y-102511904D02*
X98907200Y-102559523D01*
X98907200Y-102559523D02*
X98954819Y-102654761D01*
X98954819Y-102654761D02*
X98954819Y-102749999D01*
X98954819Y-102749999D02*
X98907200Y-102845237D01*
X98907200Y-102845237D02*
X98859580Y-102892856D01*
X98859580Y-102892856D02*
X98764342Y-102940475D01*
X98764342Y-102940475D02*
X98573866Y-102988094D01*
X98573866Y-102988094D02*
X98335771Y-102988094D01*
X98335771Y-102988094D02*
X98145295Y-102940475D01*
X98145295Y-102940475D02*
X98050057Y-102892856D01*
X98050057Y-102892856D02*
X98002438Y-102845237D01*
X98002438Y-102845237D02*
X97954819Y-102749999D01*
X98050057Y-102035713D02*
X98002438Y-101988094D01*
X98002438Y-101988094D02*
X97954819Y-101892856D01*
X97954819Y-101892856D02*
X97954819Y-101654761D01*
X97954819Y-101654761D02*
X98002438Y-101559523D01*
X98002438Y-101559523D02*
X98050057Y-101511904D01*
X98050057Y-101511904D02*
X98145295Y-101464285D01*
X98145295Y-101464285D02*
X98240533Y-101464285D01*
X98240533Y-101464285D02*
X98383390Y-101511904D01*
X98383390Y-101511904D02*
X98954819Y-102083332D01*
X98954819Y-102083332D02*
X98954819Y-101464285D01*
X99050057Y-101273809D02*
X99050057Y-100511904D01*
X98954819Y-100273808D02*
X97954819Y-100273808D01*
X97954819Y-100273808D02*
X97954819Y-99892856D01*
X97954819Y-99892856D02*
X98002438Y-99797618D01*
X98002438Y-99797618D02*
X98050057Y-99749999D01*
X98050057Y-99749999D02*
X98145295Y-99702380D01*
X98145295Y-99702380D02*
X98288152Y-99702380D01*
X98288152Y-99702380D02*
X98383390Y-99749999D01*
X98383390Y-99749999D02*
X98431009Y-99797618D01*
X98431009Y-99797618D02*
X98478628Y-99892856D01*
X98478628Y-99892856D02*
X98478628Y-100273808D01*
X98954819Y-99273808D02*
X98288152Y-99273808D01*
X97954819Y-99273808D02*
X98002438Y-99321427D01*
X98002438Y-99321427D02*
X98050057Y-99273808D01*
X98050057Y-99273808D02*
X98002438Y-99226189D01*
X98002438Y-99226189D02*
X97954819Y-99273808D01*
X97954819Y-99273808D02*
X98050057Y-99273808D01*
X98288152Y-98797618D02*
X98954819Y-98797618D01*
X98383390Y-98797618D02*
X98335771Y-98749999D01*
X98335771Y-98749999D02*
X98288152Y-98654761D01*
X98288152Y-98654761D02*
X98288152Y-98511904D01*
X98288152Y-98511904D02*
X98335771Y-98416666D01*
X98335771Y-98416666D02*
X98431009Y-98369047D01*
X98431009Y-98369047D02*
X98954819Y-98369047D01*
X79948095Y-95054819D02*
X79948095Y-95864342D01*
X79948095Y-95864342D02*
X79995714Y-95959580D01*
X79995714Y-95959580D02*
X80043333Y-96007200D01*
X80043333Y-96007200D02*
X80138571Y-96054819D01*
X80138571Y-96054819D02*
X80329047Y-96054819D01*
X80329047Y-96054819D02*
X80424285Y-96007200D01*
X80424285Y-96007200D02*
X80471904Y-95959580D01*
X80471904Y-95959580D02*
X80519523Y-95864342D01*
X80519523Y-95864342D02*
X80519523Y-95054819D01*
X80948095Y-95150057D02*
X80995714Y-95102438D01*
X80995714Y-95102438D02*
X81090952Y-95054819D01*
X81090952Y-95054819D02*
X81329047Y-95054819D01*
X81329047Y-95054819D02*
X81424285Y-95102438D01*
X81424285Y-95102438D02*
X81471904Y-95150057D01*
X81471904Y-95150057D02*
X81519523Y-95245295D01*
X81519523Y-95245295D02*
X81519523Y-95340533D01*
X81519523Y-95340533D02*
X81471904Y-95483390D01*
X81471904Y-95483390D02*
X80900476Y-96054819D01*
X80900476Y-96054819D02*
X81519523Y-96054819D01*
X75686190Y-89754819D02*
X75210000Y-89754819D01*
X75210000Y-89754819D02*
X75210000Y-88754819D01*
X76019524Y-89754819D02*
X76019524Y-88754819D01*
X76019524Y-88754819D02*
X76352857Y-89469104D01*
X76352857Y-89469104D02*
X76686190Y-88754819D01*
X76686190Y-88754819D02*
X76686190Y-89754819D01*
X77067143Y-88754819D02*
X77686190Y-88754819D01*
X77686190Y-88754819D02*
X77352857Y-89135771D01*
X77352857Y-89135771D02*
X77495714Y-89135771D01*
X77495714Y-89135771D02*
X77590952Y-89183390D01*
X77590952Y-89183390D02*
X77638571Y-89231009D01*
X77638571Y-89231009D02*
X77686190Y-89326247D01*
X77686190Y-89326247D02*
X77686190Y-89564342D01*
X77686190Y-89564342D02*
X77638571Y-89659580D01*
X77638571Y-89659580D02*
X77590952Y-89707200D01*
X77590952Y-89707200D02*
X77495714Y-89754819D01*
X77495714Y-89754819D02*
X77210000Y-89754819D01*
X77210000Y-89754819D02*
X77114762Y-89707200D01*
X77114762Y-89707200D02*
X77067143Y-89659580D01*
X78638571Y-89754819D02*
X78067143Y-89754819D01*
X78352857Y-89754819D02*
X78352857Y-88754819D01*
X78352857Y-88754819D02*
X78257619Y-88897676D01*
X78257619Y-88897676D02*
X78162381Y-88992914D01*
X78162381Y-88992914D02*
X78067143Y-89040533D01*
X78971905Y-88754819D02*
X79638571Y-88754819D01*
X79638571Y-88754819D02*
X79210000Y-89754819D01*
X79781429Y-89850057D02*
X80543333Y-89850057D01*
X80638572Y-88754819D02*
X81210000Y-88754819D01*
X80924286Y-89754819D02*
X80924286Y-88754819D01*
X81733810Y-88754819D02*
X81924286Y-88754819D01*
X81924286Y-88754819D02*
X82019524Y-88802438D01*
X82019524Y-88802438D02*
X82114762Y-88897676D01*
X82114762Y-88897676D02*
X82162381Y-89088152D01*
X82162381Y-89088152D02*
X82162381Y-89421485D01*
X82162381Y-89421485D02*
X82114762Y-89611961D01*
X82114762Y-89611961D02*
X82019524Y-89707200D01*
X82019524Y-89707200D02*
X81924286Y-89754819D01*
X81924286Y-89754819D02*
X81733810Y-89754819D01*
X81733810Y-89754819D02*
X81638572Y-89707200D01*
X81638572Y-89707200D02*
X81543334Y-89611961D01*
X81543334Y-89611961D02*
X81495715Y-89421485D01*
X81495715Y-89421485D02*
X81495715Y-89088152D01*
X81495715Y-89088152D02*
X81543334Y-88897676D01*
X81543334Y-88897676D02*
X81638572Y-88802438D01*
X81638572Y-88802438D02*
X81733810Y-88754819D01*
X82590953Y-89373866D02*
X83352858Y-89373866D01*
X83781429Y-88850057D02*
X83829048Y-88802438D01*
X83829048Y-88802438D02*
X83924286Y-88754819D01*
X83924286Y-88754819D02*
X84162381Y-88754819D01*
X84162381Y-88754819D02*
X84257619Y-88802438D01*
X84257619Y-88802438D02*
X84305238Y-88850057D01*
X84305238Y-88850057D02*
X84352857Y-88945295D01*
X84352857Y-88945295D02*
X84352857Y-89040533D01*
X84352857Y-89040533D02*
X84305238Y-89183390D01*
X84305238Y-89183390D02*
X83733810Y-89754819D01*
X83733810Y-89754819D02*
X84352857Y-89754819D01*
X84733810Y-88850057D02*
X84781429Y-88802438D01*
X84781429Y-88802438D02*
X84876667Y-88754819D01*
X84876667Y-88754819D02*
X85114762Y-88754819D01*
X85114762Y-88754819D02*
X85210000Y-88802438D01*
X85210000Y-88802438D02*
X85257619Y-88850057D01*
X85257619Y-88850057D02*
X85305238Y-88945295D01*
X85305238Y-88945295D02*
X85305238Y-89040533D01*
X85305238Y-89040533D02*
X85257619Y-89183390D01*
X85257619Y-89183390D02*
X84686191Y-89754819D01*
X84686191Y-89754819D02*
X85305238Y-89754819D01*
X85924286Y-88754819D02*
X86019524Y-88754819D01*
X86019524Y-88754819D02*
X86114762Y-88802438D01*
X86114762Y-88802438D02*
X86162381Y-88850057D01*
X86162381Y-88850057D02*
X86210000Y-88945295D01*
X86210000Y-88945295D02*
X86257619Y-89135771D01*
X86257619Y-89135771D02*
X86257619Y-89373866D01*
X86257619Y-89373866D02*
X86210000Y-89564342D01*
X86210000Y-89564342D02*
X86162381Y-89659580D01*
X86162381Y-89659580D02*
X86114762Y-89707200D01*
X86114762Y-89707200D02*
X86019524Y-89754819D01*
X86019524Y-89754819D02*
X85924286Y-89754819D01*
X85924286Y-89754819D02*
X85829048Y-89707200D01*
X85829048Y-89707200D02*
X85781429Y-89659580D01*
X85781429Y-89659580D02*
X85733810Y-89564342D01*
X85733810Y-89564342D02*
X85686191Y-89373866D01*
X85686191Y-89373866D02*
X85686191Y-89135771D01*
X85686191Y-89135771D02*
X85733810Y-88945295D01*
X85733810Y-88945295D02*
X85781429Y-88850057D01*
X85781429Y-88850057D02*
X85829048Y-88802438D01*
X85829048Y-88802438D02*
X85924286Y-88754819D01*
X92843333Y-98124819D02*
X92510000Y-97648628D01*
X92271905Y-98124819D02*
X92271905Y-97124819D01*
X92271905Y-97124819D02*
X92652857Y-97124819D01*
X92652857Y-97124819D02*
X92748095Y-97172438D01*
X92748095Y-97172438D02*
X92795714Y-97220057D01*
X92795714Y-97220057D02*
X92843333Y-97315295D01*
X92843333Y-97315295D02*
X92843333Y-97458152D01*
X92843333Y-97458152D02*
X92795714Y-97553390D01*
X92795714Y-97553390D02*
X92748095Y-97601009D01*
X92748095Y-97601009D02*
X92652857Y-97648628D01*
X92652857Y-97648628D02*
X92271905Y-97648628D01*
X93700476Y-97458152D02*
X93700476Y-98124819D01*
X93462381Y-97077200D02*
X93224286Y-97791485D01*
X93224286Y-97791485D02*
X93843333Y-97791485D01*
X95035714Y-96954819D02*
X94559524Y-96954819D01*
X94559524Y-96954819D02*
X94511905Y-97431009D01*
X94511905Y-97431009D02*
X94559524Y-97383390D01*
X94559524Y-97383390D02*
X94654762Y-97335771D01*
X94654762Y-97335771D02*
X94892857Y-97335771D01*
X94892857Y-97335771D02*
X94988095Y-97383390D01*
X94988095Y-97383390D02*
X95035714Y-97431009D01*
X95035714Y-97431009D02*
X95083333Y-97526247D01*
X95083333Y-97526247D02*
X95083333Y-97764342D01*
X95083333Y-97764342D02*
X95035714Y-97859580D01*
X95035714Y-97859580D02*
X94988095Y-97907200D01*
X94988095Y-97907200D02*
X94892857Y-97954819D01*
X94892857Y-97954819D02*
X94654762Y-97954819D01*
X94654762Y-97954819D02*
X94559524Y-97907200D01*
X94559524Y-97907200D02*
X94511905Y-97859580D01*
X95940476Y-96954819D02*
X95750000Y-96954819D01*
X95750000Y-96954819D02*
X95654762Y-97002438D01*
X95654762Y-97002438D02*
X95607143Y-97050057D01*
X95607143Y-97050057D02*
X95511905Y-97192914D01*
X95511905Y-97192914D02*
X95464286Y-97383390D01*
X95464286Y-97383390D02*
X95464286Y-97764342D01*
X95464286Y-97764342D02*
X95511905Y-97859580D01*
X95511905Y-97859580D02*
X95559524Y-97907200D01*
X95559524Y-97907200D02*
X95654762Y-97954819D01*
X95654762Y-97954819D02*
X95845238Y-97954819D01*
X95845238Y-97954819D02*
X95940476Y-97907200D01*
X95940476Y-97907200D02*
X95988095Y-97859580D01*
X95988095Y-97859580D02*
X96035714Y-97764342D01*
X96035714Y-97764342D02*
X96035714Y-97526247D01*
X96035714Y-97526247D02*
X95988095Y-97431009D01*
X95988095Y-97431009D02*
X95940476Y-97383390D01*
X95940476Y-97383390D02*
X95845238Y-97335771D01*
X95845238Y-97335771D02*
X95654762Y-97335771D01*
X95654762Y-97335771D02*
X95559524Y-97383390D01*
X95559524Y-97383390D02*
X95511905Y-97431009D01*
X95511905Y-97431009D02*
X95464286Y-97526247D01*
X96654762Y-96954819D02*
X96750000Y-96954819D01*
X96750000Y-96954819D02*
X96845238Y-97002438D01*
X96845238Y-97002438D02*
X96892857Y-97050057D01*
X96892857Y-97050057D02*
X96940476Y-97145295D01*
X96940476Y-97145295D02*
X96988095Y-97335771D01*
X96988095Y-97335771D02*
X96988095Y-97573866D01*
X96988095Y-97573866D02*
X96940476Y-97764342D01*
X96940476Y-97764342D02*
X96892857Y-97859580D01*
X96892857Y-97859580D02*
X96845238Y-97907200D01*
X96845238Y-97907200D02*
X96750000Y-97954819D01*
X96750000Y-97954819D02*
X96654762Y-97954819D01*
X96654762Y-97954819D02*
X96559524Y-97907200D01*
X96559524Y-97907200D02*
X96511905Y-97859580D01*
X96511905Y-97859580D02*
X96464286Y-97764342D01*
X96464286Y-97764342D02*
X96416667Y-97573866D01*
X96416667Y-97573866D02*
X96416667Y-97335771D01*
X96416667Y-97335771D02*
X96464286Y-97145295D01*
X96464286Y-97145295D02*
X96511905Y-97050057D01*
X96511905Y-97050057D02*
X96559524Y-97002438D01*
X96559524Y-97002438D02*
X96654762Y-96954819D01*
X90333333Y-84204819D02*
X90000000Y-83728628D01*
X89761905Y-84204819D02*
X89761905Y-83204819D01*
X89761905Y-83204819D02*
X90142857Y-83204819D01*
X90142857Y-83204819D02*
X90238095Y-83252438D01*
X90238095Y-83252438D02*
X90285714Y-83300057D01*
X90285714Y-83300057D02*
X90333333Y-83395295D01*
X90333333Y-83395295D02*
X90333333Y-83538152D01*
X90333333Y-83538152D02*
X90285714Y-83633390D01*
X90285714Y-83633390D02*
X90238095Y-83681009D01*
X90238095Y-83681009D02*
X90142857Y-83728628D01*
X90142857Y-83728628D02*
X89761905Y-83728628D01*
X90666667Y-83204819D02*
X91285714Y-83204819D01*
X91285714Y-83204819D02*
X90952381Y-83585771D01*
X90952381Y-83585771D02*
X91095238Y-83585771D01*
X91095238Y-83585771D02*
X91190476Y-83633390D01*
X91190476Y-83633390D02*
X91238095Y-83681009D01*
X91238095Y-83681009D02*
X91285714Y-83776247D01*
X91285714Y-83776247D02*
X91285714Y-84014342D01*
X91285714Y-84014342D02*
X91238095Y-84109580D01*
X91238095Y-84109580D02*
X91190476Y-84157200D01*
X91190476Y-84157200D02*
X91095238Y-84204819D01*
X91095238Y-84204819D02*
X90809524Y-84204819D01*
X90809524Y-84204819D02*
X90714286Y-84157200D01*
X90714286Y-84157200D02*
X90666667Y-84109580D01*
X92214286Y-78454819D02*
X92833333Y-78454819D01*
X92833333Y-78454819D02*
X92500000Y-78835771D01*
X92500000Y-78835771D02*
X92642857Y-78835771D01*
X92642857Y-78835771D02*
X92738095Y-78883390D01*
X92738095Y-78883390D02*
X92785714Y-78931009D01*
X92785714Y-78931009D02*
X92833333Y-79026247D01*
X92833333Y-79026247D02*
X92833333Y-79264342D01*
X92833333Y-79264342D02*
X92785714Y-79359580D01*
X92785714Y-79359580D02*
X92738095Y-79407200D01*
X92738095Y-79407200D02*
X92642857Y-79454819D01*
X92642857Y-79454819D02*
X92357143Y-79454819D01*
X92357143Y-79454819D02*
X92261905Y-79407200D01*
X92261905Y-79407200D02*
X92214286Y-79359580D01*
X93166667Y-78454819D02*
X93785714Y-78454819D01*
X93785714Y-78454819D02*
X93452381Y-78835771D01*
X93452381Y-78835771D02*
X93595238Y-78835771D01*
X93595238Y-78835771D02*
X93690476Y-78883390D01*
X93690476Y-78883390D02*
X93738095Y-78931009D01*
X93738095Y-78931009D02*
X93785714Y-79026247D01*
X93785714Y-79026247D02*
X93785714Y-79264342D01*
X93785714Y-79264342D02*
X93738095Y-79359580D01*
X93738095Y-79359580D02*
X93690476Y-79407200D01*
X93690476Y-79407200D02*
X93595238Y-79454819D01*
X93595238Y-79454819D02*
X93309524Y-79454819D01*
X93309524Y-79454819D02*
X93214286Y-79407200D01*
X93214286Y-79407200D02*
X93166667Y-79359580D01*
X94404762Y-78454819D02*
X94500000Y-78454819D01*
X94500000Y-78454819D02*
X94595238Y-78502438D01*
X94595238Y-78502438D02*
X94642857Y-78550057D01*
X94642857Y-78550057D02*
X94690476Y-78645295D01*
X94690476Y-78645295D02*
X94738095Y-78835771D01*
X94738095Y-78835771D02*
X94738095Y-79073866D01*
X94738095Y-79073866D02*
X94690476Y-79264342D01*
X94690476Y-79264342D02*
X94642857Y-79359580D01*
X94642857Y-79359580D02*
X94595238Y-79407200D01*
X94595238Y-79407200D02*
X94500000Y-79454819D01*
X94500000Y-79454819D02*
X94404762Y-79454819D01*
X94404762Y-79454819D02*
X94309524Y-79407200D01*
X94309524Y-79407200D02*
X94261905Y-79359580D01*
X94261905Y-79359580D02*
X94214286Y-79264342D01*
X94214286Y-79264342D02*
X94166667Y-79073866D01*
X94166667Y-79073866D02*
X94166667Y-78835771D01*
X94166667Y-78835771D02*
X94214286Y-78645295D01*
X94214286Y-78645295D02*
X94261905Y-78550057D01*
X94261905Y-78550057D02*
X94309524Y-78502438D01*
X94309524Y-78502438D02*
X94404762Y-78454819D01*
X85301904Y-102157200D02*
X85444761Y-102204819D01*
X85444761Y-102204819D02*
X85682856Y-102204819D01*
X85682856Y-102204819D02*
X85778094Y-102157200D01*
X85778094Y-102157200D02*
X85825713Y-102109580D01*
X85825713Y-102109580D02*
X85873332Y-102014342D01*
X85873332Y-102014342D02*
X85873332Y-101919104D01*
X85873332Y-101919104D02*
X85825713Y-101823866D01*
X85825713Y-101823866D02*
X85778094Y-101776247D01*
X85778094Y-101776247D02*
X85682856Y-101728628D01*
X85682856Y-101728628D02*
X85492380Y-101681009D01*
X85492380Y-101681009D02*
X85397142Y-101633390D01*
X85397142Y-101633390D02*
X85349523Y-101585771D01*
X85349523Y-101585771D02*
X85301904Y-101490533D01*
X85301904Y-101490533D02*
X85301904Y-101395295D01*
X85301904Y-101395295D02*
X85349523Y-101300057D01*
X85349523Y-101300057D02*
X85397142Y-101252438D01*
X85397142Y-101252438D02*
X85492380Y-101204819D01*
X85492380Y-101204819D02*
X85730475Y-101204819D01*
X85730475Y-101204819D02*
X85873332Y-101252438D01*
X86730475Y-102157200D02*
X86635237Y-102204819D01*
X86635237Y-102204819D02*
X86444761Y-102204819D01*
X86444761Y-102204819D02*
X86349523Y-102157200D01*
X86349523Y-102157200D02*
X86301904Y-102109580D01*
X86301904Y-102109580D02*
X86254285Y-102014342D01*
X86254285Y-102014342D02*
X86254285Y-101728628D01*
X86254285Y-101728628D02*
X86301904Y-101633390D01*
X86301904Y-101633390D02*
X86349523Y-101585771D01*
X86349523Y-101585771D02*
X86444761Y-101538152D01*
X86444761Y-101538152D02*
X86635237Y-101538152D01*
X86635237Y-101538152D02*
X86730475Y-101585771D01*
X87159047Y-102204819D02*
X87159047Y-101538152D01*
X87159047Y-101728628D02*
X87206666Y-101633390D01*
X87206666Y-101633390D02*
X87254285Y-101585771D01*
X87254285Y-101585771D02*
X87349523Y-101538152D01*
X87349523Y-101538152D02*
X87444761Y-101538152D01*
X88159047Y-102157200D02*
X88063809Y-102204819D01*
X88063809Y-102204819D02*
X87873333Y-102204819D01*
X87873333Y-102204819D02*
X87778095Y-102157200D01*
X87778095Y-102157200D02*
X87730476Y-102061961D01*
X87730476Y-102061961D02*
X87730476Y-101681009D01*
X87730476Y-101681009D02*
X87778095Y-101585771D01*
X87778095Y-101585771D02*
X87873333Y-101538152D01*
X87873333Y-101538152D02*
X88063809Y-101538152D01*
X88063809Y-101538152D02*
X88159047Y-101585771D01*
X88159047Y-101585771D02*
X88206666Y-101681009D01*
X88206666Y-101681009D02*
X88206666Y-101776247D01*
X88206666Y-101776247D02*
X87730476Y-101871485D01*
X88540000Y-101538152D02*
X88730476Y-102204819D01*
X88730476Y-102204819D02*
X88920952Y-101728628D01*
X88920952Y-101728628D02*
X89111428Y-102204819D01*
X89111428Y-102204819D02*
X89301904Y-101538152D01*
X89444762Y-102300057D02*
X90206666Y-102300057D01*
X90301905Y-101204819D02*
X90873333Y-101204819D01*
X90587619Y-102204819D02*
X90587619Y-101204819D01*
X91587619Y-102157200D02*
X91492381Y-102204819D01*
X91492381Y-102204819D02*
X91301905Y-102204819D01*
X91301905Y-102204819D02*
X91206667Y-102157200D01*
X91206667Y-102157200D02*
X91159048Y-102061961D01*
X91159048Y-102061961D02*
X91159048Y-101681009D01*
X91159048Y-101681009D02*
X91206667Y-101585771D01*
X91206667Y-101585771D02*
X91301905Y-101538152D01*
X91301905Y-101538152D02*
X91492381Y-101538152D01*
X91492381Y-101538152D02*
X91587619Y-101585771D01*
X91587619Y-101585771D02*
X91635238Y-101681009D01*
X91635238Y-101681009D02*
X91635238Y-101776247D01*
X91635238Y-101776247D02*
X91159048Y-101871485D01*
X92063810Y-102204819D02*
X92063810Y-101538152D01*
X92063810Y-101728628D02*
X92111429Y-101633390D01*
X92111429Y-101633390D02*
X92159048Y-101585771D01*
X92159048Y-101585771D02*
X92254286Y-101538152D01*
X92254286Y-101538152D02*
X92349524Y-101538152D01*
X92682858Y-102204819D02*
X92682858Y-101538152D01*
X92682858Y-101633390D02*
X92730477Y-101585771D01*
X92730477Y-101585771D02*
X92825715Y-101538152D01*
X92825715Y-101538152D02*
X92968572Y-101538152D01*
X92968572Y-101538152D02*
X93063810Y-101585771D01*
X93063810Y-101585771D02*
X93111429Y-101681009D01*
X93111429Y-101681009D02*
X93111429Y-102204819D01*
X93111429Y-101681009D02*
X93159048Y-101585771D01*
X93159048Y-101585771D02*
X93254286Y-101538152D01*
X93254286Y-101538152D02*
X93397143Y-101538152D01*
X93397143Y-101538152D02*
X93492382Y-101585771D01*
X93492382Y-101585771D02*
X93540001Y-101681009D01*
X93540001Y-101681009D02*
X93540001Y-102204819D01*
X94016191Y-102204819D02*
X94016191Y-101538152D01*
X94016191Y-101204819D02*
X93968572Y-101252438D01*
X93968572Y-101252438D02*
X94016191Y-101300057D01*
X94016191Y-101300057D02*
X94063810Y-101252438D01*
X94063810Y-101252438D02*
X94016191Y-101204819D01*
X94016191Y-101204819D02*
X94016191Y-101300057D01*
X94492381Y-101538152D02*
X94492381Y-102204819D01*
X94492381Y-101633390D02*
X94540000Y-101585771D01*
X94540000Y-101585771D02*
X94635238Y-101538152D01*
X94635238Y-101538152D02*
X94778095Y-101538152D01*
X94778095Y-101538152D02*
X94873333Y-101585771D01*
X94873333Y-101585771D02*
X94920952Y-101681009D01*
X94920952Y-101681009D02*
X94920952Y-102204819D01*
X95825714Y-102204819D02*
X95825714Y-101681009D01*
X95825714Y-101681009D02*
X95778095Y-101585771D01*
X95778095Y-101585771D02*
X95682857Y-101538152D01*
X95682857Y-101538152D02*
X95492381Y-101538152D01*
X95492381Y-101538152D02*
X95397143Y-101585771D01*
X95825714Y-102157200D02*
X95730476Y-102204819D01*
X95730476Y-102204819D02*
X95492381Y-102204819D01*
X95492381Y-102204819D02*
X95397143Y-102157200D01*
X95397143Y-102157200D02*
X95349524Y-102061961D01*
X95349524Y-102061961D02*
X95349524Y-101966723D01*
X95349524Y-101966723D02*
X95397143Y-101871485D01*
X95397143Y-101871485D02*
X95492381Y-101823866D01*
X95492381Y-101823866D02*
X95730476Y-101823866D01*
X95730476Y-101823866D02*
X95825714Y-101776247D01*
X96444762Y-102204819D02*
X96349524Y-102157200D01*
X96349524Y-102157200D02*
X96301905Y-102061961D01*
X96301905Y-102061961D02*
X96301905Y-101204819D01*
X96587620Y-102300057D02*
X97349524Y-102300057D01*
X97778096Y-101204819D02*
X97873334Y-101204819D01*
X97873334Y-101204819D02*
X97968572Y-101252438D01*
X97968572Y-101252438D02*
X98016191Y-101300057D01*
X98016191Y-101300057D02*
X98063810Y-101395295D01*
X98063810Y-101395295D02*
X98111429Y-101585771D01*
X98111429Y-101585771D02*
X98111429Y-101823866D01*
X98111429Y-101823866D02*
X98063810Y-102014342D01*
X98063810Y-102014342D02*
X98016191Y-102109580D01*
X98016191Y-102109580D02*
X97968572Y-102157200D01*
X97968572Y-102157200D02*
X97873334Y-102204819D01*
X97873334Y-102204819D02*
X97778096Y-102204819D01*
X97778096Y-102204819D02*
X97682858Y-102157200D01*
X97682858Y-102157200D02*
X97635239Y-102109580D01*
X97635239Y-102109580D02*
X97587620Y-102014342D01*
X97587620Y-102014342D02*
X97540001Y-101823866D01*
X97540001Y-101823866D02*
X97540001Y-101585771D01*
X97540001Y-101585771D02*
X97587620Y-101395295D01*
X97587620Y-101395295D02*
X97635239Y-101300057D01*
X97635239Y-101300057D02*
X97682858Y-101252438D01*
X97682858Y-101252438D02*
X97778096Y-101204819D01*
X99063810Y-102204819D02*
X98492382Y-102204819D01*
X98778096Y-102204819D02*
X98778096Y-101204819D01*
X98778096Y-101204819D02*
X98682858Y-101347676D01*
X98682858Y-101347676D02*
X98587620Y-101442914D01*
X98587620Y-101442914D02*
X98492382Y-101490533D01*
X99397144Y-102204819D02*
X99920953Y-101538152D01*
X99397144Y-101538152D02*
X99920953Y-102204819D01*
X100492382Y-101204819D02*
X100587620Y-101204819D01*
X100587620Y-101204819D02*
X100682858Y-101252438D01*
X100682858Y-101252438D02*
X100730477Y-101300057D01*
X100730477Y-101300057D02*
X100778096Y-101395295D01*
X100778096Y-101395295D02*
X100825715Y-101585771D01*
X100825715Y-101585771D02*
X100825715Y-101823866D01*
X100825715Y-101823866D02*
X100778096Y-102014342D01*
X100778096Y-102014342D02*
X100730477Y-102109580D01*
X100730477Y-102109580D02*
X100682858Y-102157200D01*
X100682858Y-102157200D02*
X100587620Y-102204819D01*
X100587620Y-102204819D02*
X100492382Y-102204819D01*
X100492382Y-102204819D02*
X100397144Y-102157200D01*
X100397144Y-102157200D02*
X100349525Y-102109580D01*
X100349525Y-102109580D02*
X100301906Y-102014342D01*
X100301906Y-102014342D02*
X100254287Y-101823866D01*
X100254287Y-101823866D02*
X100254287Y-101585771D01*
X100254287Y-101585771D02*
X100301906Y-101395295D01*
X100301906Y-101395295D02*
X100349525Y-101300057D01*
X100349525Y-101300057D02*
X100397144Y-101252438D01*
X100397144Y-101252438D02*
X100492382Y-101204819D01*
X101206668Y-101300057D02*
X101254287Y-101252438D01*
X101254287Y-101252438D02*
X101349525Y-101204819D01*
X101349525Y-101204819D02*
X101587620Y-101204819D01*
X101587620Y-101204819D02*
X101682858Y-101252438D01*
X101682858Y-101252438D02*
X101730477Y-101300057D01*
X101730477Y-101300057D02*
X101778096Y-101395295D01*
X101778096Y-101395295D02*
X101778096Y-101490533D01*
X101778096Y-101490533D02*
X101730477Y-101633390D01*
X101730477Y-101633390D02*
X101159049Y-102204819D01*
X101159049Y-102204819D02*
X101778096Y-102204819D01*
X95261905Y-82454819D02*
X95261905Y-81454819D01*
X95261905Y-81454819D02*
X95500000Y-81454819D01*
X95500000Y-81454819D02*
X95642857Y-81502438D01*
X95642857Y-81502438D02*
X95738095Y-81597676D01*
X95738095Y-81597676D02*
X95785714Y-81692914D01*
X95785714Y-81692914D02*
X95833333Y-81883390D01*
X95833333Y-81883390D02*
X95833333Y-82026247D01*
X95833333Y-82026247D02*
X95785714Y-82216723D01*
X95785714Y-82216723D02*
X95738095Y-82311961D01*
X95738095Y-82311961D02*
X95642857Y-82407200D01*
X95642857Y-82407200D02*
X95500000Y-82454819D01*
X95500000Y-82454819D02*
X95261905Y-82454819D01*
X96785714Y-82454819D02*
X96214286Y-82454819D01*
X96500000Y-82454819D02*
X96500000Y-81454819D01*
X96500000Y-81454819D02*
X96404762Y-81597676D01*
X96404762Y-81597676D02*
X96309524Y-81692914D01*
X96309524Y-81692914D02*
X96214286Y-81740533D01*
X99204819Y-88392857D02*
X99204819Y-88869047D01*
X99204819Y-88869047D02*
X98204819Y-88869047D01*
X98681009Y-88059523D02*
X98681009Y-87726190D01*
X99204819Y-87583333D02*
X99204819Y-88059523D01*
X99204819Y-88059523D02*
X98204819Y-88059523D01*
X98204819Y-88059523D02*
X98204819Y-87583333D01*
X99204819Y-87154761D02*
X98204819Y-87154761D01*
X98204819Y-87154761D02*
X98204819Y-86916666D01*
X98204819Y-86916666D02*
X98252438Y-86773809D01*
X98252438Y-86773809D02*
X98347676Y-86678571D01*
X98347676Y-86678571D02*
X98442914Y-86630952D01*
X98442914Y-86630952D02*
X98633390Y-86583333D01*
X98633390Y-86583333D02*
X98776247Y-86583333D01*
X98776247Y-86583333D02*
X98966723Y-86630952D01*
X98966723Y-86630952D02*
X99061961Y-86678571D01*
X99061961Y-86678571D02*
X99157200Y-86773809D01*
X99157200Y-86773809D02*
X99204819Y-86916666D01*
X99204819Y-86916666D02*
X99204819Y-87154761D01*
X91436667Y-67857200D02*
X91579524Y-67904819D01*
X91579524Y-67904819D02*
X91817619Y-67904819D01*
X91817619Y-67904819D02*
X91912857Y-67857200D01*
X91912857Y-67857200D02*
X91960476Y-67809580D01*
X91960476Y-67809580D02*
X92008095Y-67714342D01*
X92008095Y-67714342D02*
X92008095Y-67619104D01*
X92008095Y-67619104D02*
X91960476Y-67523866D01*
X91960476Y-67523866D02*
X91912857Y-67476247D01*
X91912857Y-67476247D02*
X91817619Y-67428628D01*
X91817619Y-67428628D02*
X91627143Y-67381009D01*
X91627143Y-67381009D02*
X91531905Y-67333390D01*
X91531905Y-67333390D02*
X91484286Y-67285771D01*
X91484286Y-67285771D02*
X91436667Y-67190533D01*
X91436667Y-67190533D02*
X91436667Y-67095295D01*
X91436667Y-67095295D02*
X91484286Y-67000057D01*
X91484286Y-67000057D02*
X91531905Y-66952438D01*
X91531905Y-66952438D02*
X91627143Y-66904819D01*
X91627143Y-66904819D02*
X91865238Y-66904819D01*
X91865238Y-66904819D02*
X92008095Y-66952438D01*
X92341429Y-66904819D02*
X92579524Y-67904819D01*
X92579524Y-67904819D02*
X92770000Y-67190533D01*
X92770000Y-67190533D02*
X92960476Y-67904819D01*
X92960476Y-67904819D02*
X93198572Y-66904819D01*
X94103333Y-67904819D02*
X93531905Y-67904819D01*
X93817619Y-67904819D02*
X93817619Y-66904819D01*
X93817619Y-66904819D02*
X93722381Y-67047676D01*
X93722381Y-67047676D02*
X93627143Y-67142914D01*
X93627143Y-67142914D02*
X93531905Y-67190533D01*
X92880952Y-74431009D02*
X93214285Y-74431009D01*
X93357142Y-74954819D02*
X92880952Y-74954819D01*
X92880952Y-74954819D02*
X92880952Y-73954819D01*
X92880952Y-73954819D02*
X93357142Y-73954819D01*
X94309523Y-74002438D02*
X94214285Y-73954819D01*
X94214285Y-73954819D02*
X94071428Y-73954819D01*
X94071428Y-73954819D02*
X93928571Y-74002438D01*
X93928571Y-74002438D02*
X93833333Y-74097676D01*
X93833333Y-74097676D02*
X93785714Y-74192914D01*
X93785714Y-74192914D02*
X93738095Y-74383390D01*
X93738095Y-74383390D02*
X93738095Y-74526247D01*
X93738095Y-74526247D02*
X93785714Y-74716723D01*
X93785714Y-74716723D02*
X93833333Y-74811961D01*
X93833333Y-74811961D02*
X93928571Y-74907200D01*
X93928571Y-74907200D02*
X94071428Y-74954819D01*
X94071428Y-74954819D02*
X94166666Y-74954819D01*
X94166666Y-74954819D02*
X94309523Y-74907200D01*
X94309523Y-74907200D02*
X94357142Y-74859580D01*
X94357142Y-74859580D02*
X94357142Y-74526247D01*
X94357142Y-74526247D02*
X94166666Y-74526247D01*
X95309523Y-74954819D02*
X94738095Y-74954819D01*
X95023809Y-74954819D02*
X95023809Y-73954819D01*
X95023809Y-73954819D02*
X94928571Y-74097676D01*
X94928571Y-74097676D02*
X94833333Y-74192914D01*
X94833333Y-74192914D02*
X94738095Y-74240533D01*
X95690476Y-74050057D02*
X95738095Y-74002438D01*
X95738095Y-74002438D02*
X95833333Y-73954819D01*
X95833333Y-73954819D02*
X96071428Y-73954819D01*
X96071428Y-73954819D02*
X96166666Y-74002438D01*
X96166666Y-74002438D02*
X96214285Y-74050057D01*
X96214285Y-74050057D02*
X96261904Y-74145295D01*
X96261904Y-74145295D02*
X96261904Y-74240533D01*
X96261904Y-74240533D02*
X96214285Y-74383390D01*
X96214285Y-74383390D02*
X95642857Y-74954819D01*
X95642857Y-74954819D02*
X96261904Y-74954819D01*
X97214285Y-74954819D02*
X96642857Y-74954819D01*
X96928571Y-74954819D02*
X96928571Y-73954819D01*
X96928571Y-73954819D02*
X96833333Y-74097676D01*
X96833333Y-74097676D02*
X96738095Y-74192914D01*
X96738095Y-74192914D02*
X96642857Y-74240533D01*
X97785714Y-74383390D02*
X97690476Y-74335771D01*
X97690476Y-74335771D02*
X97642857Y-74288152D01*
X97642857Y-74288152D02*
X97595238Y-74192914D01*
X97595238Y-74192914D02*
X97595238Y-74145295D01*
X97595238Y-74145295D02*
X97642857Y-74050057D01*
X97642857Y-74050057D02*
X97690476Y-74002438D01*
X97690476Y-74002438D02*
X97785714Y-73954819D01*
X97785714Y-73954819D02*
X97976190Y-73954819D01*
X97976190Y-73954819D02*
X98071428Y-74002438D01*
X98071428Y-74002438D02*
X98119047Y-74050057D01*
X98119047Y-74050057D02*
X98166666Y-74145295D01*
X98166666Y-74145295D02*
X98166666Y-74192914D01*
X98166666Y-74192914D02*
X98119047Y-74288152D01*
X98119047Y-74288152D02*
X98071428Y-74335771D01*
X98071428Y-74335771D02*
X97976190Y-74383390D01*
X97976190Y-74383390D02*
X97785714Y-74383390D01*
X97785714Y-74383390D02*
X97690476Y-74431009D01*
X97690476Y-74431009D02*
X97642857Y-74478628D01*
X97642857Y-74478628D02*
X97595238Y-74573866D01*
X97595238Y-74573866D02*
X97595238Y-74764342D01*
X97595238Y-74764342D02*
X97642857Y-74859580D01*
X97642857Y-74859580D02*
X97690476Y-74907200D01*
X97690476Y-74907200D02*
X97785714Y-74954819D01*
X97785714Y-74954819D02*
X97976190Y-74954819D01*
X97976190Y-74954819D02*
X98071428Y-74907200D01*
X98071428Y-74907200D02*
X98119047Y-74859580D01*
X98119047Y-74859580D02*
X98166666Y-74764342D01*
X98166666Y-74764342D02*
X98166666Y-74573866D01*
X98166666Y-74573866D02*
X98119047Y-74478628D01*
X98119047Y-74478628D02*
X98071428Y-74431009D01*
X98071428Y-74431009D02*
X97976190Y-74383390D01*
X81833333Y-98059580D02*
X81785714Y-98107200D01*
X81785714Y-98107200D02*
X81642857Y-98154819D01*
X81642857Y-98154819D02*
X81547619Y-98154819D01*
X81547619Y-98154819D02*
X81404762Y-98107200D01*
X81404762Y-98107200D02*
X81309524Y-98011961D01*
X81309524Y-98011961D02*
X81261905Y-97916723D01*
X81261905Y-97916723D02*
X81214286Y-97726247D01*
X81214286Y-97726247D02*
X81214286Y-97583390D01*
X81214286Y-97583390D02*
X81261905Y-97392914D01*
X81261905Y-97392914D02*
X81309524Y-97297676D01*
X81309524Y-97297676D02*
X81404762Y-97202438D01*
X81404762Y-97202438D02*
X81547619Y-97154819D01*
X81547619Y-97154819D02*
X81642857Y-97154819D01*
X81642857Y-97154819D02*
X81785714Y-97202438D01*
X81785714Y-97202438D02*
X81833333Y-97250057D01*
X82166667Y-97154819D02*
X82785714Y-97154819D01*
X82785714Y-97154819D02*
X82452381Y-97535771D01*
X82452381Y-97535771D02*
X82595238Y-97535771D01*
X82595238Y-97535771D02*
X82690476Y-97583390D01*
X82690476Y-97583390D02*
X82738095Y-97631009D01*
X82738095Y-97631009D02*
X82785714Y-97726247D01*
X82785714Y-97726247D02*
X82785714Y-97964342D01*
X82785714Y-97964342D02*
X82738095Y-98059580D01*
X82738095Y-98059580D02*
X82690476Y-98107200D01*
X82690476Y-98107200D02*
X82595238Y-98154819D01*
X82595238Y-98154819D02*
X82309524Y-98154819D01*
X82309524Y-98154819D02*
X82214286Y-98107200D01*
X82214286Y-98107200D02*
X82166667Y-98059580D01*
X81833333Y-102254819D02*
X81261905Y-102254819D01*
X81547619Y-102254819D02*
X81547619Y-101254819D01*
X81547619Y-101254819D02*
X81452381Y-101397676D01*
X81452381Y-101397676D02*
X81357143Y-101492914D01*
X81357143Y-101492914D02*
X81261905Y-101540533D01*
X82690476Y-101588152D02*
X82690476Y-102254819D01*
X82261905Y-101588152D02*
X82261905Y-102111961D01*
X82261905Y-102111961D02*
X82309524Y-102207200D01*
X82309524Y-102207200D02*
X82404762Y-102254819D01*
X82404762Y-102254819D02*
X82547619Y-102254819D01*
X82547619Y-102254819D02*
X82642857Y-102207200D01*
X82642857Y-102207200D02*
X82690476Y-102159580D01*
X88190475Y-66359580D02*
X88142856Y-66407200D01*
X88142856Y-66407200D02*
X87999999Y-66454819D01*
X87999999Y-66454819D02*
X87904761Y-66454819D01*
X87904761Y-66454819D02*
X87761904Y-66407200D01*
X87761904Y-66407200D02*
X87666666Y-66311961D01*
X87666666Y-66311961D02*
X87619047Y-66216723D01*
X87619047Y-66216723D02*
X87571428Y-66026247D01*
X87571428Y-66026247D02*
X87571428Y-65883390D01*
X87571428Y-65883390D02*
X87619047Y-65692914D01*
X87619047Y-65692914D02*
X87666666Y-65597676D01*
X87666666Y-65597676D02*
X87761904Y-65502438D01*
X87761904Y-65502438D02*
X87904761Y-65454819D01*
X87904761Y-65454819D02*
X87999999Y-65454819D01*
X87999999Y-65454819D02*
X88142856Y-65502438D01*
X88142856Y-65502438D02*
X88190475Y-65550057D01*
X88761904Y-66454819D02*
X88666666Y-66407200D01*
X88666666Y-66407200D02*
X88619047Y-66359580D01*
X88619047Y-66359580D02*
X88571428Y-66264342D01*
X88571428Y-66264342D02*
X88571428Y-65978628D01*
X88571428Y-65978628D02*
X88619047Y-65883390D01*
X88619047Y-65883390D02*
X88666666Y-65835771D01*
X88666666Y-65835771D02*
X88761904Y-65788152D01*
X88761904Y-65788152D02*
X88904761Y-65788152D01*
X88904761Y-65788152D02*
X88999999Y-65835771D01*
X88999999Y-65835771D02*
X89047618Y-65883390D01*
X89047618Y-65883390D02*
X89095237Y-65978628D01*
X89095237Y-65978628D02*
X89095237Y-66264342D01*
X89095237Y-66264342D02*
X89047618Y-66359580D01*
X89047618Y-66359580D02*
X88999999Y-66407200D01*
X88999999Y-66407200D02*
X88904761Y-66454819D01*
X88904761Y-66454819D02*
X88761904Y-66454819D01*
X89523809Y-65788152D02*
X89523809Y-66454819D01*
X89523809Y-65883390D02*
X89571428Y-65835771D01*
X89571428Y-65835771D02*
X89666666Y-65788152D01*
X89666666Y-65788152D02*
X89809523Y-65788152D01*
X89809523Y-65788152D02*
X89904761Y-65835771D01*
X89904761Y-65835771D02*
X89952380Y-65931009D01*
X89952380Y-65931009D02*
X89952380Y-66454819D01*
X90428571Y-65788152D02*
X90428571Y-66454819D01*
X90428571Y-65883390D02*
X90476190Y-65835771D01*
X90476190Y-65835771D02*
X90571428Y-65788152D01*
X90571428Y-65788152D02*
X90714285Y-65788152D01*
X90714285Y-65788152D02*
X90809523Y-65835771D01*
X90809523Y-65835771D02*
X90857142Y-65931009D01*
X90857142Y-65931009D02*
X90857142Y-66454819D01*
X91095238Y-66550057D02*
X91857142Y-66550057D01*
X92285714Y-65454819D02*
X92380952Y-65454819D01*
X92380952Y-65454819D02*
X92476190Y-65502438D01*
X92476190Y-65502438D02*
X92523809Y-65550057D01*
X92523809Y-65550057D02*
X92571428Y-65645295D01*
X92571428Y-65645295D02*
X92619047Y-65835771D01*
X92619047Y-65835771D02*
X92619047Y-66073866D01*
X92619047Y-66073866D02*
X92571428Y-66264342D01*
X92571428Y-66264342D02*
X92523809Y-66359580D01*
X92523809Y-66359580D02*
X92476190Y-66407200D01*
X92476190Y-66407200D02*
X92380952Y-66454819D01*
X92380952Y-66454819D02*
X92285714Y-66454819D01*
X92285714Y-66454819D02*
X92190476Y-66407200D01*
X92190476Y-66407200D02*
X92142857Y-66359580D01*
X92142857Y-66359580D02*
X92095238Y-66264342D01*
X92095238Y-66264342D02*
X92047619Y-66073866D01*
X92047619Y-66073866D02*
X92047619Y-65835771D01*
X92047619Y-65835771D02*
X92095238Y-65645295D01*
X92095238Y-65645295D02*
X92142857Y-65550057D01*
X92142857Y-65550057D02*
X92190476Y-65502438D01*
X92190476Y-65502438D02*
X92285714Y-65454819D01*
X93571428Y-66454819D02*
X93000000Y-66454819D01*
X93285714Y-66454819D02*
X93285714Y-65454819D01*
X93285714Y-65454819D02*
X93190476Y-65597676D01*
X93190476Y-65597676D02*
X93095238Y-65692914D01*
X93095238Y-65692914D02*
X93000000Y-65740533D01*
X93904762Y-66454819D02*
X94428571Y-65788152D01*
X93904762Y-65788152D02*
X94428571Y-66454819D01*
X95000000Y-65454819D02*
X95095238Y-65454819D01*
X95095238Y-65454819D02*
X95190476Y-65502438D01*
X95190476Y-65502438D02*
X95238095Y-65550057D01*
X95238095Y-65550057D02*
X95285714Y-65645295D01*
X95285714Y-65645295D02*
X95333333Y-65835771D01*
X95333333Y-65835771D02*
X95333333Y-66073866D01*
X95333333Y-66073866D02*
X95285714Y-66264342D01*
X95285714Y-66264342D02*
X95238095Y-66359580D01*
X95238095Y-66359580D02*
X95190476Y-66407200D01*
X95190476Y-66407200D02*
X95095238Y-66454819D01*
X95095238Y-66454819D02*
X95000000Y-66454819D01*
X95000000Y-66454819D02*
X94904762Y-66407200D01*
X94904762Y-66407200D02*
X94857143Y-66359580D01*
X94857143Y-66359580D02*
X94809524Y-66264342D01*
X94809524Y-66264342D02*
X94761905Y-66073866D01*
X94761905Y-66073866D02*
X94761905Y-65835771D01*
X94761905Y-65835771D02*
X94809524Y-65645295D01*
X94809524Y-65645295D02*
X94857143Y-65550057D01*
X94857143Y-65550057D02*
X94904762Y-65502438D01*
X94904762Y-65502438D02*
X95000000Y-65454819D01*
X95714286Y-65550057D02*
X95761905Y-65502438D01*
X95761905Y-65502438D02*
X95857143Y-65454819D01*
X95857143Y-65454819D02*
X96095238Y-65454819D01*
X96095238Y-65454819D02*
X96190476Y-65502438D01*
X96190476Y-65502438D02*
X96238095Y-65550057D01*
X96238095Y-65550057D02*
X96285714Y-65645295D01*
X96285714Y-65645295D02*
X96285714Y-65740533D01*
X96285714Y-65740533D02*
X96238095Y-65883390D01*
X96238095Y-65883390D02*
X95666667Y-66454819D01*
X95666667Y-66454819D02*
X96285714Y-66454819D01*
X96476191Y-66550057D02*
X97238095Y-66550057D01*
X97476191Y-66454819D02*
X97476191Y-65454819D01*
X97476191Y-65454819D02*
X97857143Y-65454819D01*
X97857143Y-65454819D02*
X97952381Y-65502438D01*
X97952381Y-65502438D02*
X98000000Y-65550057D01*
X98000000Y-65550057D02*
X98047619Y-65645295D01*
X98047619Y-65645295D02*
X98047619Y-65788152D01*
X98047619Y-65788152D02*
X98000000Y-65883390D01*
X98000000Y-65883390D02*
X97952381Y-65931009D01*
X97952381Y-65931009D02*
X97857143Y-65978628D01*
X97857143Y-65978628D02*
X97476191Y-65978628D01*
X98476191Y-66454819D02*
X98476191Y-65788152D01*
X98476191Y-65454819D02*
X98428572Y-65502438D01*
X98428572Y-65502438D02*
X98476191Y-65550057D01*
X98476191Y-65550057D02*
X98523810Y-65502438D01*
X98523810Y-65502438D02*
X98476191Y-65454819D01*
X98476191Y-65454819D02*
X98476191Y-65550057D01*
X98952381Y-65788152D02*
X98952381Y-66454819D01*
X98952381Y-65883390D02*
X99000000Y-65835771D01*
X99000000Y-65835771D02*
X99095238Y-65788152D01*
X99095238Y-65788152D02*
X99238095Y-65788152D01*
X99238095Y-65788152D02*
X99333333Y-65835771D01*
X99333333Y-65835771D02*
X99380952Y-65931009D01*
X99380952Y-65931009D02*
X99380952Y-66454819D01*
X76716666Y-86204819D02*
X76716666Y-86919104D01*
X76716666Y-86919104D02*
X76669047Y-87061961D01*
X76669047Y-87061961D02*
X76573809Y-87157200D01*
X76573809Y-87157200D02*
X76430952Y-87204819D01*
X76430952Y-87204819D02*
X76335714Y-87204819D01*
X77335714Y-86633390D02*
X77240476Y-86585771D01*
X77240476Y-86585771D02*
X77192857Y-86538152D01*
X77192857Y-86538152D02*
X77145238Y-86442914D01*
X77145238Y-86442914D02*
X77145238Y-86395295D01*
X77145238Y-86395295D02*
X77192857Y-86300057D01*
X77192857Y-86300057D02*
X77240476Y-86252438D01*
X77240476Y-86252438D02*
X77335714Y-86204819D01*
X77335714Y-86204819D02*
X77526190Y-86204819D01*
X77526190Y-86204819D02*
X77621428Y-86252438D01*
X77621428Y-86252438D02*
X77669047Y-86300057D01*
X77669047Y-86300057D02*
X77716666Y-86395295D01*
X77716666Y-86395295D02*
X77716666Y-86442914D01*
X77716666Y-86442914D02*
X77669047Y-86538152D01*
X77669047Y-86538152D02*
X77621428Y-86585771D01*
X77621428Y-86585771D02*
X77526190Y-86633390D01*
X77526190Y-86633390D02*
X77335714Y-86633390D01*
X77335714Y-86633390D02*
X77240476Y-86681009D01*
X77240476Y-86681009D02*
X77192857Y-86728628D01*
X77192857Y-86728628D02*
X77145238Y-86823866D01*
X77145238Y-86823866D02*
X77145238Y-87014342D01*
X77145238Y-87014342D02*
X77192857Y-87109580D01*
X77192857Y-87109580D02*
X77240476Y-87157200D01*
X77240476Y-87157200D02*
X77335714Y-87204819D01*
X77335714Y-87204819D02*
X77526190Y-87204819D01*
X77526190Y-87204819D02*
X77621428Y-87157200D01*
X77621428Y-87157200D02*
X77669047Y-87109580D01*
X77669047Y-87109580D02*
X77716666Y-87014342D01*
X77716666Y-87014342D02*
X77716666Y-86823866D01*
X77716666Y-86823866D02*
X77669047Y-86728628D01*
X77669047Y-86728628D02*
X77621428Y-86681009D01*
X77621428Y-86681009D02*
X77526190Y-86633390D01*
X71785713Y-75181009D02*
X71928570Y-75228628D01*
X71928570Y-75228628D02*
X71976189Y-75276247D01*
X71976189Y-75276247D02*
X72023808Y-75371485D01*
X72023808Y-75371485D02*
X72023808Y-75514342D01*
X72023808Y-75514342D02*
X71976189Y-75609580D01*
X71976189Y-75609580D02*
X71928570Y-75657200D01*
X71928570Y-75657200D02*
X71833332Y-75704819D01*
X71833332Y-75704819D02*
X71452380Y-75704819D01*
X71452380Y-75704819D02*
X71452380Y-74704819D01*
X71452380Y-74704819D02*
X71785713Y-74704819D01*
X71785713Y-74704819D02*
X71880951Y-74752438D01*
X71880951Y-74752438D02*
X71928570Y-74800057D01*
X71928570Y-74800057D02*
X71976189Y-74895295D01*
X71976189Y-74895295D02*
X71976189Y-74990533D01*
X71976189Y-74990533D02*
X71928570Y-75085771D01*
X71928570Y-75085771D02*
X71880951Y-75133390D01*
X71880951Y-75133390D02*
X71785713Y-75181009D01*
X71785713Y-75181009D02*
X71452380Y-75181009D01*
X72880951Y-75704819D02*
X72880951Y-75181009D01*
X72880951Y-75181009D02*
X72833332Y-75085771D01*
X72833332Y-75085771D02*
X72738094Y-75038152D01*
X72738094Y-75038152D02*
X72547618Y-75038152D01*
X72547618Y-75038152D02*
X72452380Y-75085771D01*
X72880951Y-75657200D02*
X72785713Y-75704819D01*
X72785713Y-75704819D02*
X72547618Y-75704819D01*
X72547618Y-75704819D02*
X72452380Y-75657200D01*
X72452380Y-75657200D02*
X72404761Y-75561961D01*
X72404761Y-75561961D02*
X72404761Y-75466723D01*
X72404761Y-75466723D02*
X72452380Y-75371485D01*
X72452380Y-75371485D02*
X72547618Y-75323866D01*
X72547618Y-75323866D02*
X72785713Y-75323866D01*
X72785713Y-75323866D02*
X72880951Y-75276247D01*
X73357142Y-75704819D02*
X73357142Y-75038152D01*
X73357142Y-75228628D02*
X73404761Y-75133390D01*
X73404761Y-75133390D02*
X73452380Y-75085771D01*
X73452380Y-75085771D02*
X73547618Y-75038152D01*
X73547618Y-75038152D02*
X73642856Y-75038152D01*
X73976190Y-75704819D02*
X73976190Y-75038152D01*
X73976190Y-75228628D02*
X74023809Y-75133390D01*
X74023809Y-75133390D02*
X74071428Y-75085771D01*
X74071428Y-75085771D02*
X74166666Y-75038152D01*
X74166666Y-75038152D02*
X74261904Y-75038152D01*
X74976190Y-75657200D02*
X74880952Y-75704819D01*
X74880952Y-75704819D02*
X74690476Y-75704819D01*
X74690476Y-75704819D02*
X74595238Y-75657200D01*
X74595238Y-75657200D02*
X74547619Y-75561961D01*
X74547619Y-75561961D02*
X74547619Y-75181009D01*
X74547619Y-75181009D02*
X74595238Y-75085771D01*
X74595238Y-75085771D02*
X74690476Y-75038152D01*
X74690476Y-75038152D02*
X74880952Y-75038152D01*
X74880952Y-75038152D02*
X74976190Y-75085771D01*
X74976190Y-75085771D02*
X75023809Y-75181009D01*
X75023809Y-75181009D02*
X75023809Y-75276247D01*
X75023809Y-75276247D02*
X74547619Y-75371485D01*
X75595238Y-75704819D02*
X75500000Y-75657200D01*
X75500000Y-75657200D02*
X75452381Y-75561961D01*
X75452381Y-75561961D02*
X75452381Y-74704819D01*
X75738096Y-75800057D02*
X76500000Y-75800057D01*
X77023810Y-74704819D02*
X77023810Y-75419104D01*
X77023810Y-75419104D02*
X76976191Y-75561961D01*
X76976191Y-75561961D02*
X76880953Y-75657200D01*
X76880953Y-75657200D02*
X76738096Y-75704819D01*
X76738096Y-75704819D02*
X76642858Y-75704819D01*
X77928572Y-75704819D02*
X77928572Y-75181009D01*
X77928572Y-75181009D02*
X77880953Y-75085771D01*
X77880953Y-75085771D02*
X77785715Y-75038152D01*
X77785715Y-75038152D02*
X77595239Y-75038152D01*
X77595239Y-75038152D02*
X77500001Y-75085771D01*
X77928572Y-75657200D02*
X77833334Y-75704819D01*
X77833334Y-75704819D02*
X77595239Y-75704819D01*
X77595239Y-75704819D02*
X77500001Y-75657200D01*
X77500001Y-75657200D02*
X77452382Y-75561961D01*
X77452382Y-75561961D02*
X77452382Y-75466723D01*
X77452382Y-75466723D02*
X77500001Y-75371485D01*
X77500001Y-75371485D02*
X77595239Y-75323866D01*
X77595239Y-75323866D02*
X77833334Y-75323866D01*
X77833334Y-75323866D02*
X77928572Y-75276247D01*
X78833334Y-75657200D02*
X78738096Y-75704819D01*
X78738096Y-75704819D02*
X78547620Y-75704819D01*
X78547620Y-75704819D02*
X78452382Y-75657200D01*
X78452382Y-75657200D02*
X78404763Y-75609580D01*
X78404763Y-75609580D02*
X78357144Y-75514342D01*
X78357144Y-75514342D02*
X78357144Y-75228628D01*
X78357144Y-75228628D02*
X78404763Y-75133390D01*
X78404763Y-75133390D02*
X78452382Y-75085771D01*
X78452382Y-75085771D02*
X78547620Y-75038152D01*
X78547620Y-75038152D02*
X78738096Y-75038152D01*
X78738096Y-75038152D02*
X78833334Y-75085771D01*
X79261906Y-75704819D02*
X79261906Y-74704819D01*
X79357144Y-75323866D02*
X79642858Y-75704819D01*
X79642858Y-75038152D02*
X79261906Y-75419104D01*
X79833335Y-75800057D02*
X80595239Y-75800057D01*
X80785716Y-75657200D02*
X80928573Y-75704819D01*
X80928573Y-75704819D02*
X81166668Y-75704819D01*
X81166668Y-75704819D02*
X81261906Y-75657200D01*
X81261906Y-75657200D02*
X81309525Y-75609580D01*
X81309525Y-75609580D02*
X81357144Y-75514342D01*
X81357144Y-75514342D02*
X81357144Y-75419104D01*
X81357144Y-75419104D02*
X81309525Y-75323866D01*
X81309525Y-75323866D02*
X81261906Y-75276247D01*
X81261906Y-75276247D02*
X81166668Y-75228628D01*
X81166668Y-75228628D02*
X80976192Y-75181009D01*
X80976192Y-75181009D02*
X80880954Y-75133390D01*
X80880954Y-75133390D02*
X80833335Y-75085771D01*
X80833335Y-75085771D02*
X80785716Y-74990533D01*
X80785716Y-74990533D02*
X80785716Y-74895295D01*
X80785716Y-74895295D02*
X80833335Y-74800057D01*
X80833335Y-74800057D02*
X80880954Y-74752438D01*
X80880954Y-74752438D02*
X80976192Y-74704819D01*
X80976192Y-74704819D02*
X81214287Y-74704819D01*
X81214287Y-74704819D02*
X81357144Y-74752438D01*
X81690478Y-75038152D02*
X81880954Y-75704819D01*
X81880954Y-75704819D02*
X82071430Y-75228628D01*
X82071430Y-75228628D02*
X82261906Y-75704819D01*
X82261906Y-75704819D02*
X82452382Y-75038152D01*
X82833335Y-75704819D02*
X82833335Y-75038152D01*
X82833335Y-74704819D02*
X82785716Y-74752438D01*
X82785716Y-74752438D02*
X82833335Y-74800057D01*
X82833335Y-74800057D02*
X82880954Y-74752438D01*
X82880954Y-74752438D02*
X82833335Y-74704819D01*
X82833335Y-74704819D02*
X82833335Y-74800057D01*
X83166668Y-75038152D02*
X83547620Y-75038152D01*
X83309525Y-74704819D02*
X83309525Y-75561961D01*
X83309525Y-75561961D02*
X83357144Y-75657200D01*
X83357144Y-75657200D02*
X83452382Y-75704819D01*
X83452382Y-75704819D02*
X83547620Y-75704819D01*
X84309525Y-75657200D02*
X84214287Y-75704819D01*
X84214287Y-75704819D02*
X84023811Y-75704819D01*
X84023811Y-75704819D02*
X83928573Y-75657200D01*
X83928573Y-75657200D02*
X83880954Y-75609580D01*
X83880954Y-75609580D02*
X83833335Y-75514342D01*
X83833335Y-75514342D02*
X83833335Y-75228628D01*
X83833335Y-75228628D02*
X83880954Y-75133390D01*
X83880954Y-75133390D02*
X83928573Y-75085771D01*
X83928573Y-75085771D02*
X84023811Y-75038152D01*
X84023811Y-75038152D02*
X84214287Y-75038152D01*
X84214287Y-75038152D02*
X84309525Y-75085771D01*
X84738097Y-75704819D02*
X84738097Y-74704819D01*
X85166668Y-75704819D02*
X85166668Y-75181009D01*
X85166668Y-75181009D02*
X85119049Y-75085771D01*
X85119049Y-75085771D02*
X85023811Y-75038152D01*
X85023811Y-75038152D02*
X84880954Y-75038152D01*
X84880954Y-75038152D02*
X84785716Y-75085771D01*
X84785716Y-75085771D02*
X84738097Y-75133390D01*
X85404764Y-75800057D02*
X86166668Y-75800057D01*
X86404764Y-75704819D02*
X86404764Y-74704819D01*
X86404764Y-74704819D02*
X86785716Y-74704819D01*
X86785716Y-74704819D02*
X86880954Y-74752438D01*
X86880954Y-74752438D02*
X86928573Y-74800057D01*
X86928573Y-74800057D02*
X86976192Y-74895295D01*
X86976192Y-74895295D02*
X86976192Y-75038152D01*
X86976192Y-75038152D02*
X86928573Y-75133390D01*
X86928573Y-75133390D02*
X86880954Y-75181009D01*
X86880954Y-75181009D02*
X86785716Y-75228628D01*
X86785716Y-75228628D02*
X86404764Y-75228628D01*
X87404764Y-75704819D02*
X87404764Y-75038152D01*
X87404764Y-74704819D02*
X87357145Y-74752438D01*
X87357145Y-74752438D02*
X87404764Y-74800057D01*
X87404764Y-74800057D02*
X87452383Y-74752438D01*
X87452383Y-74752438D02*
X87404764Y-74704819D01*
X87404764Y-74704819D02*
X87404764Y-74800057D01*
X87880954Y-75038152D02*
X87880954Y-75704819D01*
X87880954Y-75133390D02*
X87928573Y-75085771D01*
X87928573Y-75085771D02*
X88023811Y-75038152D01*
X88023811Y-75038152D02*
X88166668Y-75038152D01*
X88166668Y-75038152D02*
X88261906Y-75085771D01*
X88261906Y-75085771D02*
X88309525Y-75181009D01*
X88309525Y-75181009D02*
X88309525Y-75704819D01*
X88690478Y-74704819D02*
X89309525Y-74704819D01*
X89309525Y-74704819D02*
X88976192Y-75085771D01*
X88976192Y-75085771D02*
X89119049Y-75085771D01*
X89119049Y-75085771D02*
X89214287Y-75133390D01*
X89214287Y-75133390D02*
X89261906Y-75181009D01*
X89261906Y-75181009D02*
X89309525Y-75276247D01*
X89309525Y-75276247D02*
X89309525Y-75514342D01*
X89309525Y-75514342D02*
X89261906Y-75609580D01*
X89261906Y-75609580D02*
X89214287Y-75657200D01*
X89214287Y-75657200D02*
X89119049Y-75704819D01*
X89119049Y-75704819D02*
X88833335Y-75704819D01*
X88833335Y-75704819D02*
X88738097Y-75657200D01*
X88738097Y-75657200D02*
X88690478Y-75609580D01*
X90309525Y-75704819D02*
X89976192Y-75228628D01*
X89738097Y-75704819D02*
X89738097Y-74704819D01*
X89738097Y-74704819D02*
X90119049Y-74704819D01*
X90119049Y-74704819D02*
X90214287Y-74752438D01*
X90214287Y-74752438D02*
X90261906Y-74800057D01*
X90261906Y-74800057D02*
X90309525Y-74895295D01*
X90309525Y-74895295D02*
X90309525Y-75038152D01*
X90309525Y-75038152D02*
X90261906Y-75133390D01*
X90261906Y-75133390D02*
X90214287Y-75181009D01*
X90214287Y-75181009D02*
X90119049Y-75228628D01*
X90119049Y-75228628D02*
X89738097Y-75228628D01*
X90738097Y-75704819D02*
X90738097Y-75038152D01*
X90738097Y-74704819D02*
X90690478Y-74752438D01*
X90690478Y-74752438D02*
X90738097Y-74800057D01*
X90738097Y-74800057D02*
X90785716Y-74752438D01*
X90785716Y-74752438D02*
X90738097Y-74704819D01*
X90738097Y-74704819D02*
X90738097Y-74800057D01*
X91214287Y-75038152D02*
X91214287Y-75704819D01*
X91214287Y-75133390D02*
X91261906Y-75085771D01*
X91261906Y-75085771D02*
X91357144Y-75038152D01*
X91357144Y-75038152D02*
X91500001Y-75038152D01*
X91500001Y-75038152D02*
X91595239Y-75085771D01*
X91595239Y-75085771D02*
X91642858Y-75181009D01*
X91642858Y-75181009D02*
X91642858Y-75704819D01*
X92547620Y-75038152D02*
X92547620Y-75847676D01*
X92547620Y-75847676D02*
X92500001Y-75942914D01*
X92500001Y-75942914D02*
X92452382Y-75990533D01*
X92452382Y-75990533D02*
X92357144Y-76038152D01*
X92357144Y-76038152D02*
X92214287Y-76038152D01*
X92214287Y-76038152D02*
X92119049Y-75990533D01*
X92547620Y-75657200D02*
X92452382Y-75704819D01*
X92452382Y-75704819D02*
X92261906Y-75704819D01*
X92261906Y-75704819D02*
X92166668Y-75657200D01*
X92166668Y-75657200D02*
X92119049Y-75609580D01*
X92119049Y-75609580D02*
X92071430Y-75514342D01*
X92071430Y-75514342D02*
X92071430Y-75228628D01*
X92071430Y-75228628D02*
X92119049Y-75133390D01*
X92119049Y-75133390D02*
X92166668Y-75085771D01*
X92166668Y-75085771D02*
X92261906Y-75038152D01*
X92261906Y-75038152D02*
X92452382Y-75038152D01*
X92452382Y-75038152D02*
X92547620Y-75085771D01*
X82166666Y-77504819D02*
X82166666Y-78219104D01*
X82166666Y-78219104D02*
X82119047Y-78361961D01*
X82119047Y-78361961D02*
X82023809Y-78457200D01*
X82023809Y-78457200D02*
X81880952Y-78504819D01*
X81880952Y-78504819D02*
X81785714Y-78504819D01*
X82785714Y-77933390D02*
X82690476Y-77885771D01*
X82690476Y-77885771D02*
X82642857Y-77838152D01*
X82642857Y-77838152D02*
X82595238Y-77742914D01*
X82595238Y-77742914D02*
X82595238Y-77695295D01*
X82595238Y-77695295D02*
X82642857Y-77600057D01*
X82642857Y-77600057D02*
X82690476Y-77552438D01*
X82690476Y-77552438D02*
X82785714Y-77504819D01*
X82785714Y-77504819D02*
X82976190Y-77504819D01*
X82976190Y-77504819D02*
X83071428Y-77552438D01*
X83071428Y-77552438D02*
X83119047Y-77600057D01*
X83119047Y-77600057D02*
X83166666Y-77695295D01*
X83166666Y-77695295D02*
X83166666Y-77742914D01*
X83166666Y-77742914D02*
X83119047Y-77838152D01*
X83119047Y-77838152D02*
X83071428Y-77885771D01*
X83071428Y-77885771D02*
X82976190Y-77933390D01*
X82976190Y-77933390D02*
X82785714Y-77933390D01*
X82785714Y-77933390D02*
X82690476Y-77981009D01*
X82690476Y-77981009D02*
X82642857Y-78028628D01*
X82642857Y-78028628D02*
X82595238Y-78123866D01*
X82595238Y-78123866D02*
X82595238Y-78314342D01*
X82595238Y-78314342D02*
X82642857Y-78409580D01*
X82642857Y-78409580D02*
X82690476Y-78457200D01*
X82690476Y-78457200D02*
X82785714Y-78504819D01*
X82785714Y-78504819D02*
X82976190Y-78504819D01*
X82976190Y-78504819D02*
X83071428Y-78457200D01*
X83071428Y-78457200D02*
X83119047Y-78409580D01*
X83119047Y-78409580D02*
X83166666Y-78314342D01*
X83166666Y-78314342D02*
X83166666Y-78123866D01*
X83166666Y-78123866D02*
X83119047Y-78028628D01*
X83119047Y-78028628D02*
X83071428Y-77981009D01*
X83071428Y-77981009D02*
X82976190Y-77933390D01*
X77833333Y-62809580D02*
X77785714Y-62857200D01*
X77785714Y-62857200D02*
X77642857Y-62904819D01*
X77642857Y-62904819D02*
X77547619Y-62904819D01*
X77547619Y-62904819D02*
X77404762Y-62857200D01*
X77404762Y-62857200D02*
X77309524Y-62761961D01*
X77309524Y-62761961D02*
X77261905Y-62666723D01*
X77261905Y-62666723D02*
X77214286Y-62476247D01*
X77214286Y-62476247D02*
X77214286Y-62333390D01*
X77214286Y-62333390D02*
X77261905Y-62142914D01*
X77261905Y-62142914D02*
X77309524Y-62047676D01*
X77309524Y-62047676D02*
X77404762Y-61952438D01*
X77404762Y-61952438D02*
X77547619Y-61904819D01*
X77547619Y-61904819D02*
X77642857Y-61904819D01*
X77642857Y-61904819D02*
X77785714Y-61952438D01*
X77785714Y-61952438D02*
X77833333Y-62000057D01*
X78214286Y-62000057D02*
X78261905Y-61952438D01*
X78261905Y-61952438D02*
X78357143Y-61904819D01*
X78357143Y-61904819D02*
X78595238Y-61904819D01*
X78595238Y-61904819D02*
X78690476Y-61952438D01*
X78690476Y-61952438D02*
X78738095Y-62000057D01*
X78738095Y-62000057D02*
X78785714Y-62095295D01*
X78785714Y-62095295D02*
X78785714Y-62190533D01*
X78785714Y-62190533D02*
X78738095Y-62333390D01*
X78738095Y-62333390D02*
X78166667Y-62904819D01*
X78166667Y-62904819D02*
X78785714Y-62904819D01*
X73035714Y-63954819D02*
X73130952Y-63954819D01*
X73130952Y-63954819D02*
X73226190Y-64002438D01*
X73226190Y-64002438D02*
X73273809Y-64050057D01*
X73273809Y-64050057D02*
X73321428Y-64145295D01*
X73321428Y-64145295D02*
X73369047Y-64335771D01*
X73369047Y-64335771D02*
X73369047Y-64573866D01*
X73369047Y-64573866D02*
X73321428Y-64764342D01*
X73321428Y-64764342D02*
X73273809Y-64859580D01*
X73273809Y-64859580D02*
X73226190Y-64907200D01*
X73226190Y-64907200D02*
X73130952Y-64954819D01*
X73130952Y-64954819D02*
X73035714Y-64954819D01*
X73035714Y-64954819D02*
X72940476Y-64907200D01*
X72940476Y-64907200D02*
X72892857Y-64859580D01*
X72892857Y-64859580D02*
X72845238Y-64764342D01*
X72845238Y-64764342D02*
X72797619Y-64573866D01*
X72797619Y-64573866D02*
X72797619Y-64335771D01*
X72797619Y-64335771D02*
X72845238Y-64145295D01*
X72845238Y-64145295D02*
X72892857Y-64050057D01*
X72892857Y-64050057D02*
X72940476Y-64002438D01*
X72940476Y-64002438D02*
X73035714Y-63954819D01*
X73797619Y-64859580D02*
X73845238Y-64907200D01*
X73845238Y-64907200D02*
X73797619Y-64954819D01*
X73797619Y-64954819D02*
X73750000Y-64907200D01*
X73750000Y-64907200D02*
X73797619Y-64859580D01*
X73797619Y-64859580D02*
X73797619Y-64954819D01*
X74797618Y-64954819D02*
X74226190Y-64954819D01*
X74511904Y-64954819D02*
X74511904Y-63954819D01*
X74511904Y-63954819D02*
X74416666Y-64097676D01*
X74416666Y-64097676D02*
X74321428Y-64192914D01*
X74321428Y-64192914D02*
X74226190Y-64240533D01*
X75654761Y-64288152D02*
X75654761Y-64954819D01*
X75226190Y-64288152D02*
X75226190Y-64811961D01*
X75226190Y-64811961D02*
X75273809Y-64907200D01*
X75273809Y-64907200D02*
X75369047Y-64954819D01*
X75369047Y-64954819D02*
X75511904Y-64954819D01*
X75511904Y-64954819D02*
X75607142Y-64907200D01*
X75607142Y-64907200D02*
X75654761Y-64859580D01*
X83583333Y-66909580D02*
X83535714Y-66957200D01*
X83535714Y-66957200D02*
X83392857Y-67004819D01*
X83392857Y-67004819D02*
X83297619Y-67004819D01*
X83297619Y-67004819D02*
X83154762Y-66957200D01*
X83154762Y-66957200D02*
X83059524Y-66861961D01*
X83059524Y-66861961D02*
X83011905Y-66766723D01*
X83011905Y-66766723D02*
X82964286Y-66576247D01*
X82964286Y-66576247D02*
X82964286Y-66433390D01*
X82964286Y-66433390D02*
X83011905Y-66242914D01*
X83011905Y-66242914D02*
X83059524Y-66147676D01*
X83059524Y-66147676D02*
X83154762Y-66052438D01*
X83154762Y-66052438D02*
X83297619Y-66004819D01*
X83297619Y-66004819D02*
X83392857Y-66004819D01*
X83392857Y-66004819D02*
X83535714Y-66052438D01*
X83535714Y-66052438D02*
X83583333Y-66100057D01*
X84535714Y-67004819D02*
X83964286Y-67004819D01*
X84250000Y-67004819D02*
X84250000Y-66004819D01*
X84250000Y-66004819D02*
X84154762Y-66147676D01*
X84154762Y-66147676D02*
X84059524Y-66242914D01*
X84059524Y-66242914D02*
X83964286Y-66290533D01*
X83107142Y-62904819D02*
X82535714Y-62904819D01*
X82821428Y-62904819D02*
X82821428Y-61904819D01*
X82821428Y-61904819D02*
X82726190Y-62047676D01*
X82726190Y-62047676D02*
X82630952Y-62142914D01*
X82630952Y-62142914D02*
X82535714Y-62190533D01*
X83726190Y-61904819D02*
X83821428Y-61904819D01*
X83821428Y-61904819D02*
X83916666Y-61952438D01*
X83916666Y-61952438D02*
X83964285Y-62000057D01*
X83964285Y-62000057D02*
X84011904Y-62095295D01*
X84011904Y-62095295D02*
X84059523Y-62285771D01*
X84059523Y-62285771D02*
X84059523Y-62523866D01*
X84059523Y-62523866D02*
X84011904Y-62714342D01*
X84011904Y-62714342D02*
X83964285Y-62809580D01*
X83964285Y-62809580D02*
X83916666Y-62857200D01*
X83916666Y-62857200D02*
X83821428Y-62904819D01*
X83821428Y-62904819D02*
X83726190Y-62904819D01*
X83726190Y-62904819D02*
X83630952Y-62857200D01*
X83630952Y-62857200D02*
X83583333Y-62809580D01*
X83583333Y-62809580D02*
X83535714Y-62714342D01*
X83535714Y-62714342D02*
X83488095Y-62523866D01*
X83488095Y-62523866D02*
X83488095Y-62285771D01*
X83488095Y-62285771D02*
X83535714Y-62095295D01*
X83535714Y-62095295D02*
X83583333Y-62000057D01*
X83583333Y-62000057D02*
X83630952Y-61952438D01*
X83630952Y-61952438D02*
X83726190Y-61904819D01*
X84916666Y-62238152D02*
X84916666Y-62904819D01*
X84488095Y-62238152D02*
X84488095Y-62761961D01*
X84488095Y-62761961D02*
X84535714Y-62857200D01*
X84535714Y-62857200D02*
X84630952Y-62904819D01*
X84630952Y-62904819D02*
X84773809Y-62904819D01*
X84773809Y-62904819D02*
X84869047Y-62857200D01*
X84869047Y-62857200D02*
X84916666Y-62809580D01*
X98166666Y-62204819D02*
X98166666Y-62919104D01*
X98166666Y-62919104D02*
X98119047Y-63061961D01*
X98119047Y-63061961D02*
X98023809Y-63157200D01*
X98023809Y-63157200D02*
X97880952Y-63204819D01*
X97880952Y-63204819D02*
X97785714Y-63204819D01*
X98547619Y-62204819D02*
X99214285Y-62204819D01*
X99214285Y-62204819D02*
X98785714Y-63204819D01*
D11*
X91158500Y-65119045D02*
X91206119Y-65047617D01*
X91206119Y-65047617D02*
X91206119Y-64928569D01*
X91206119Y-64928569D02*
X91158500Y-64880950D01*
X91158500Y-64880950D02*
X91110880Y-64857141D01*
X91110880Y-64857141D02*
X91015642Y-64833331D01*
X91015642Y-64833331D02*
X90920404Y-64833331D01*
X90920404Y-64833331D02*
X90825166Y-64857141D01*
X90825166Y-64857141D02*
X90777547Y-64880950D01*
X90777547Y-64880950D02*
X90729928Y-64928569D01*
X90729928Y-64928569D02*
X90682309Y-65023807D01*
X90682309Y-65023807D02*
X90634690Y-65071426D01*
X90634690Y-65071426D02*
X90587071Y-65095236D01*
X90587071Y-65095236D02*
X90491833Y-65119045D01*
X90491833Y-65119045D02*
X90396595Y-65119045D01*
X90396595Y-65119045D02*
X90301357Y-65095236D01*
X90301357Y-65095236D02*
X90253738Y-65071426D01*
X90253738Y-65071426D02*
X90206119Y-65023807D01*
X90206119Y-65023807D02*
X90206119Y-64904760D01*
X90206119Y-64904760D02*
X90253738Y-64833331D01*
X91158500Y-64404760D02*
X91206119Y-64452379D01*
X91206119Y-64452379D02*
X91206119Y-64547617D01*
X91206119Y-64547617D02*
X91158500Y-64595236D01*
X91158500Y-64595236D02*
X91110880Y-64619046D01*
X91110880Y-64619046D02*
X91015642Y-64642855D01*
X91015642Y-64642855D02*
X90729928Y-64642855D01*
X90729928Y-64642855D02*
X90634690Y-64619046D01*
X90634690Y-64619046D02*
X90587071Y-64595236D01*
X90587071Y-64595236D02*
X90539452Y-64547617D01*
X90539452Y-64547617D02*
X90539452Y-64452379D01*
X90539452Y-64452379D02*
X90587071Y-64404760D01*
X91206119Y-64190475D02*
X90539452Y-64190475D01*
X90729928Y-64190475D02*
X90634690Y-64166665D01*
X90634690Y-64166665D02*
X90587071Y-64142856D01*
X90587071Y-64142856D02*
X90539452Y-64095237D01*
X90539452Y-64095237D02*
X90539452Y-64047618D01*
X91158500Y-63690475D02*
X91206119Y-63738094D01*
X91206119Y-63738094D02*
X91206119Y-63833332D01*
X91206119Y-63833332D02*
X91158500Y-63880951D01*
X91158500Y-63880951D02*
X91063261Y-63904760D01*
X91063261Y-63904760D02*
X90682309Y-63904760D01*
X90682309Y-63904760D02*
X90587071Y-63880951D01*
X90587071Y-63880951D02*
X90539452Y-63833332D01*
X90539452Y-63833332D02*
X90539452Y-63738094D01*
X90539452Y-63738094D02*
X90587071Y-63690475D01*
X90587071Y-63690475D02*
X90682309Y-63666665D01*
X90682309Y-63666665D02*
X90777547Y-63666665D01*
X90777547Y-63666665D02*
X90872785Y-63904760D01*
X90539452Y-63499999D02*
X91206119Y-63404761D01*
X91206119Y-63404761D02*
X90729928Y-63309523D01*
X90729928Y-63309523D02*
X91206119Y-63214285D01*
X91206119Y-63214285D02*
X90539452Y-63119047D01*
X91301357Y-63047618D02*
X91301357Y-62666665D01*
X90206119Y-62619046D02*
X90206119Y-62333332D01*
X91206119Y-62476189D02*
X90206119Y-62476189D01*
X91158500Y-61976190D02*
X91206119Y-62023809D01*
X91206119Y-62023809D02*
X91206119Y-62119047D01*
X91206119Y-62119047D02*
X91158500Y-62166666D01*
X91158500Y-62166666D02*
X91063261Y-62190475D01*
X91063261Y-62190475D02*
X90682309Y-62190475D01*
X90682309Y-62190475D02*
X90587071Y-62166666D01*
X90587071Y-62166666D02*
X90539452Y-62119047D01*
X90539452Y-62119047D02*
X90539452Y-62023809D01*
X90539452Y-62023809D02*
X90587071Y-61976190D01*
X90587071Y-61976190D02*
X90682309Y-61952380D01*
X90682309Y-61952380D02*
X90777547Y-61952380D01*
X90777547Y-61952380D02*
X90872785Y-62190475D01*
X91206119Y-61738095D02*
X90539452Y-61738095D01*
X90729928Y-61738095D02*
X90634690Y-61714285D01*
X90634690Y-61714285D02*
X90587071Y-61690476D01*
X90587071Y-61690476D02*
X90539452Y-61642857D01*
X90539452Y-61642857D02*
X90539452Y-61595238D01*
X91206119Y-61428571D02*
X90539452Y-61428571D01*
X90634690Y-61428571D02*
X90587071Y-61404761D01*
X90587071Y-61404761D02*
X90539452Y-61357142D01*
X90539452Y-61357142D02*
X90539452Y-61285714D01*
X90539452Y-61285714D02*
X90587071Y-61238095D01*
X90587071Y-61238095D02*
X90682309Y-61214285D01*
X90682309Y-61214285D02*
X91206119Y-61214285D01*
X90682309Y-61214285D02*
X90587071Y-61190476D01*
X90587071Y-61190476D02*
X90539452Y-61142857D01*
X90539452Y-61142857D02*
X90539452Y-61071428D01*
X90539452Y-61071428D02*
X90587071Y-61023809D01*
X90587071Y-61023809D02*
X90682309Y-60999999D01*
X90682309Y-60999999D02*
X91206119Y-60999999D01*
X91206119Y-60761904D02*
X90539452Y-60761904D01*
X90206119Y-60761904D02*
X90253738Y-60785713D01*
X90253738Y-60785713D02*
X90301357Y-60761904D01*
X90301357Y-60761904D02*
X90253738Y-60738094D01*
X90253738Y-60738094D02*
X90206119Y-60761904D01*
X90206119Y-60761904D02*
X90301357Y-60761904D01*
X90539452Y-60523809D02*
X91206119Y-60523809D01*
X90634690Y-60523809D02*
X90587071Y-60499999D01*
X90587071Y-60499999D02*
X90539452Y-60452380D01*
X90539452Y-60452380D02*
X90539452Y-60380952D01*
X90539452Y-60380952D02*
X90587071Y-60333333D01*
X90587071Y-60333333D02*
X90682309Y-60309523D01*
X90682309Y-60309523D02*
X91206119Y-60309523D01*
X91206119Y-59857142D02*
X90682309Y-59857142D01*
X90682309Y-59857142D02*
X90587071Y-59880952D01*
X90587071Y-59880952D02*
X90539452Y-59928571D01*
X90539452Y-59928571D02*
X90539452Y-60023809D01*
X90539452Y-60023809D02*
X90587071Y-60071428D01*
X91158500Y-59857142D02*
X91206119Y-59904761D01*
X91206119Y-59904761D02*
X91206119Y-60023809D01*
X91206119Y-60023809D02*
X91158500Y-60071428D01*
X91158500Y-60071428D02*
X91063261Y-60095237D01*
X91063261Y-60095237D02*
X90968023Y-60095237D01*
X90968023Y-60095237D02*
X90872785Y-60071428D01*
X90872785Y-60071428D02*
X90825166Y-60023809D01*
X90825166Y-60023809D02*
X90825166Y-59904761D01*
X90825166Y-59904761D02*
X90777547Y-59857142D01*
X91206119Y-59547618D02*
X91158500Y-59595237D01*
X91158500Y-59595237D02*
X91063261Y-59619047D01*
X91063261Y-59619047D02*
X90206119Y-59619047D01*
X91301357Y-59476190D02*
X91301357Y-59095237D01*
X90206119Y-58880952D02*
X90206119Y-58833333D01*
X90206119Y-58833333D02*
X90253738Y-58785714D01*
X90253738Y-58785714D02*
X90301357Y-58761904D01*
X90301357Y-58761904D02*
X90396595Y-58738095D01*
X90396595Y-58738095D02*
X90587071Y-58714285D01*
X90587071Y-58714285D02*
X90825166Y-58714285D01*
X90825166Y-58714285D02*
X91015642Y-58738095D01*
X91015642Y-58738095D02*
X91110880Y-58761904D01*
X91110880Y-58761904D02*
X91158500Y-58785714D01*
X91158500Y-58785714D02*
X91206119Y-58833333D01*
X91206119Y-58833333D02*
X91206119Y-58880952D01*
X91206119Y-58880952D02*
X91158500Y-58928571D01*
X91158500Y-58928571D02*
X91110880Y-58952380D01*
X91110880Y-58952380D02*
X91015642Y-58976190D01*
X91015642Y-58976190D02*
X90825166Y-58999999D01*
X90825166Y-58999999D02*
X90587071Y-58999999D01*
X90587071Y-58999999D02*
X90396595Y-58976190D01*
X90396595Y-58976190D02*
X90301357Y-58952380D01*
X90301357Y-58952380D02*
X90253738Y-58928571D01*
X90253738Y-58928571D02*
X90206119Y-58880952D01*
X91206119Y-58238095D02*
X91206119Y-58523809D01*
X91206119Y-58380952D02*
X90206119Y-58380952D01*
X90206119Y-58380952D02*
X90348976Y-58428571D01*
X90348976Y-58428571D02*
X90444214Y-58476190D01*
X90444214Y-58476190D02*
X90491833Y-58523809D01*
X91206119Y-58071429D02*
X90539452Y-57809524D01*
X90539452Y-58071429D02*
X91206119Y-57809524D01*
X90206119Y-57523810D02*
X90206119Y-57476191D01*
X90206119Y-57476191D02*
X90253738Y-57428572D01*
X90253738Y-57428572D02*
X90301357Y-57404762D01*
X90301357Y-57404762D02*
X90396595Y-57380953D01*
X90396595Y-57380953D02*
X90587071Y-57357143D01*
X90587071Y-57357143D02*
X90825166Y-57357143D01*
X90825166Y-57357143D02*
X91015642Y-57380953D01*
X91015642Y-57380953D02*
X91110880Y-57404762D01*
X91110880Y-57404762D02*
X91158500Y-57428572D01*
X91158500Y-57428572D02*
X91206119Y-57476191D01*
X91206119Y-57476191D02*
X91206119Y-57523810D01*
X91206119Y-57523810D02*
X91158500Y-57571429D01*
X91158500Y-57571429D02*
X91110880Y-57595238D01*
X91110880Y-57595238D02*
X91015642Y-57619048D01*
X91015642Y-57619048D02*
X90825166Y-57642857D01*
X90825166Y-57642857D02*
X90587071Y-57642857D01*
X90587071Y-57642857D02*
X90396595Y-57619048D01*
X90396595Y-57619048D02*
X90301357Y-57595238D01*
X90301357Y-57595238D02*
X90253738Y-57571429D01*
X90253738Y-57571429D02*
X90206119Y-57523810D01*
X90301357Y-57166667D02*
X90253738Y-57142858D01*
X90253738Y-57142858D02*
X90206119Y-57095239D01*
X90206119Y-57095239D02*
X90206119Y-56976191D01*
X90206119Y-56976191D02*
X90253738Y-56928572D01*
X90253738Y-56928572D02*
X90301357Y-56904763D01*
X90301357Y-56904763D02*
X90396595Y-56880953D01*
X90396595Y-56880953D02*
X90491833Y-56880953D01*
X90491833Y-56880953D02*
X90634690Y-56904763D01*
X90634690Y-56904763D02*
X91206119Y-57190477D01*
X91206119Y-57190477D02*
X91206119Y-56880953D01*
D10*
X80394819Y-107583333D02*
X81109104Y-107583333D01*
X81109104Y-107583333D02*
X81251961Y-107630952D01*
X81251961Y-107630952D02*
X81347200Y-107726190D01*
X81347200Y-107726190D02*
X81394819Y-107869047D01*
X81394819Y-107869047D02*
X81394819Y-107964285D01*
X80728152Y-106678571D02*
X81394819Y-106678571D01*
X80347200Y-106916666D02*
X81061485Y-107154761D01*
X81061485Y-107154761D02*
X81061485Y-106535714D01*
X76690475Y-104859580D02*
X76642856Y-104907200D01*
X76642856Y-104907200D02*
X76499999Y-104954819D01*
X76499999Y-104954819D02*
X76404761Y-104954819D01*
X76404761Y-104954819D02*
X76261904Y-104907200D01*
X76261904Y-104907200D02*
X76166666Y-104811961D01*
X76166666Y-104811961D02*
X76119047Y-104716723D01*
X76119047Y-104716723D02*
X76071428Y-104526247D01*
X76071428Y-104526247D02*
X76071428Y-104383390D01*
X76071428Y-104383390D02*
X76119047Y-104192914D01*
X76119047Y-104192914D02*
X76166666Y-104097676D01*
X76166666Y-104097676D02*
X76261904Y-104002438D01*
X76261904Y-104002438D02*
X76404761Y-103954819D01*
X76404761Y-103954819D02*
X76499999Y-103954819D01*
X76499999Y-103954819D02*
X76642856Y-104002438D01*
X76642856Y-104002438D02*
X76690475Y-104050057D01*
X77261904Y-104954819D02*
X77166666Y-104907200D01*
X77166666Y-104907200D02*
X77119047Y-104859580D01*
X77119047Y-104859580D02*
X77071428Y-104764342D01*
X77071428Y-104764342D02*
X77071428Y-104478628D01*
X77071428Y-104478628D02*
X77119047Y-104383390D01*
X77119047Y-104383390D02*
X77166666Y-104335771D01*
X77166666Y-104335771D02*
X77261904Y-104288152D01*
X77261904Y-104288152D02*
X77404761Y-104288152D01*
X77404761Y-104288152D02*
X77499999Y-104335771D01*
X77499999Y-104335771D02*
X77547618Y-104383390D01*
X77547618Y-104383390D02*
X77595237Y-104478628D01*
X77595237Y-104478628D02*
X77595237Y-104764342D01*
X77595237Y-104764342D02*
X77547618Y-104859580D01*
X77547618Y-104859580D02*
X77499999Y-104907200D01*
X77499999Y-104907200D02*
X77404761Y-104954819D01*
X77404761Y-104954819D02*
X77261904Y-104954819D01*
X78023809Y-104288152D02*
X78023809Y-104954819D01*
X78023809Y-104383390D02*
X78071428Y-104335771D01*
X78071428Y-104335771D02*
X78166666Y-104288152D01*
X78166666Y-104288152D02*
X78309523Y-104288152D01*
X78309523Y-104288152D02*
X78404761Y-104335771D01*
X78404761Y-104335771D02*
X78452380Y-104431009D01*
X78452380Y-104431009D02*
X78452380Y-104954819D01*
X78928571Y-104288152D02*
X78928571Y-104954819D01*
X78928571Y-104383390D02*
X78976190Y-104335771D01*
X78976190Y-104335771D02*
X79071428Y-104288152D01*
X79071428Y-104288152D02*
X79214285Y-104288152D01*
X79214285Y-104288152D02*
X79309523Y-104335771D01*
X79309523Y-104335771D02*
X79357142Y-104431009D01*
X79357142Y-104431009D02*
X79357142Y-104954819D01*
X79595238Y-105050057D02*
X80357142Y-105050057D01*
X80785714Y-103954819D02*
X80880952Y-103954819D01*
X80880952Y-103954819D02*
X80976190Y-104002438D01*
X80976190Y-104002438D02*
X81023809Y-104050057D01*
X81023809Y-104050057D02*
X81071428Y-104145295D01*
X81071428Y-104145295D02*
X81119047Y-104335771D01*
X81119047Y-104335771D02*
X81119047Y-104573866D01*
X81119047Y-104573866D02*
X81071428Y-104764342D01*
X81071428Y-104764342D02*
X81023809Y-104859580D01*
X81023809Y-104859580D02*
X80976190Y-104907200D01*
X80976190Y-104907200D02*
X80880952Y-104954819D01*
X80880952Y-104954819D02*
X80785714Y-104954819D01*
X80785714Y-104954819D02*
X80690476Y-104907200D01*
X80690476Y-104907200D02*
X80642857Y-104859580D01*
X80642857Y-104859580D02*
X80595238Y-104764342D01*
X80595238Y-104764342D02*
X80547619Y-104573866D01*
X80547619Y-104573866D02*
X80547619Y-104335771D01*
X80547619Y-104335771D02*
X80595238Y-104145295D01*
X80595238Y-104145295D02*
X80642857Y-104050057D01*
X80642857Y-104050057D02*
X80690476Y-104002438D01*
X80690476Y-104002438D02*
X80785714Y-103954819D01*
X82071428Y-104954819D02*
X81500000Y-104954819D01*
X81785714Y-104954819D02*
X81785714Y-103954819D01*
X81785714Y-103954819D02*
X81690476Y-104097676D01*
X81690476Y-104097676D02*
X81595238Y-104192914D01*
X81595238Y-104192914D02*
X81500000Y-104240533D01*
X82404762Y-104954819D02*
X82928571Y-104288152D01*
X82404762Y-104288152D02*
X82928571Y-104954819D01*
X83500000Y-103954819D02*
X83595238Y-103954819D01*
X83595238Y-103954819D02*
X83690476Y-104002438D01*
X83690476Y-104002438D02*
X83738095Y-104050057D01*
X83738095Y-104050057D02*
X83785714Y-104145295D01*
X83785714Y-104145295D02*
X83833333Y-104335771D01*
X83833333Y-104335771D02*
X83833333Y-104573866D01*
X83833333Y-104573866D02*
X83785714Y-104764342D01*
X83785714Y-104764342D02*
X83738095Y-104859580D01*
X83738095Y-104859580D02*
X83690476Y-104907200D01*
X83690476Y-104907200D02*
X83595238Y-104954819D01*
X83595238Y-104954819D02*
X83500000Y-104954819D01*
X83500000Y-104954819D02*
X83404762Y-104907200D01*
X83404762Y-104907200D02*
X83357143Y-104859580D01*
X83357143Y-104859580D02*
X83309524Y-104764342D01*
X83309524Y-104764342D02*
X83261905Y-104573866D01*
X83261905Y-104573866D02*
X83261905Y-104335771D01*
X83261905Y-104335771D02*
X83309524Y-104145295D01*
X83309524Y-104145295D02*
X83357143Y-104050057D01*
X83357143Y-104050057D02*
X83404762Y-104002438D01*
X83404762Y-104002438D02*
X83500000Y-103954819D01*
X84166667Y-103954819D02*
X84785714Y-103954819D01*
X84785714Y-103954819D02*
X84452381Y-104335771D01*
X84452381Y-104335771D02*
X84595238Y-104335771D01*
X84595238Y-104335771D02*
X84690476Y-104383390D01*
X84690476Y-104383390D02*
X84738095Y-104431009D01*
X84738095Y-104431009D02*
X84785714Y-104526247D01*
X84785714Y-104526247D02*
X84785714Y-104764342D01*
X84785714Y-104764342D02*
X84738095Y-104859580D01*
X84738095Y-104859580D02*
X84690476Y-104907200D01*
X84690476Y-104907200D02*
X84595238Y-104954819D01*
X84595238Y-104954819D02*
X84309524Y-104954819D01*
X84309524Y-104954819D02*
X84214286Y-104907200D01*
X84214286Y-104907200D02*
X84166667Y-104859580D01*
X84976191Y-105050057D02*
X85738095Y-105050057D01*
X85976191Y-104954819D02*
X85976191Y-103954819D01*
X85976191Y-103954819D02*
X86357143Y-103954819D01*
X86357143Y-103954819D02*
X86452381Y-104002438D01*
X86452381Y-104002438D02*
X86500000Y-104050057D01*
X86500000Y-104050057D02*
X86547619Y-104145295D01*
X86547619Y-104145295D02*
X86547619Y-104288152D01*
X86547619Y-104288152D02*
X86500000Y-104383390D01*
X86500000Y-104383390D02*
X86452381Y-104431009D01*
X86452381Y-104431009D02*
X86357143Y-104478628D01*
X86357143Y-104478628D02*
X85976191Y-104478628D01*
X86976191Y-104954819D02*
X86976191Y-104288152D01*
X86976191Y-103954819D02*
X86928572Y-104002438D01*
X86928572Y-104002438D02*
X86976191Y-104050057D01*
X86976191Y-104050057D02*
X87023810Y-104002438D01*
X87023810Y-104002438D02*
X86976191Y-103954819D01*
X86976191Y-103954819D02*
X86976191Y-104050057D01*
X87452381Y-104288152D02*
X87452381Y-104954819D01*
X87452381Y-104383390D02*
X87500000Y-104335771D01*
X87500000Y-104335771D02*
X87595238Y-104288152D01*
X87595238Y-104288152D02*
X87738095Y-104288152D01*
X87738095Y-104288152D02*
X87833333Y-104335771D01*
X87833333Y-104335771D02*
X87880952Y-104431009D01*
X87880952Y-104431009D02*
X87880952Y-104954819D01*
%TO.C,J3*%
D12*
X81880000Y-58170000D02*
X83210000Y-58170000D01*
X81880000Y-59500000D02*
X81880000Y-58170000D01*
X84480000Y-58170000D02*
X89620000Y-58170000D01*
X84480000Y-60830000D02*
X84480000Y-58170000D01*
X84480000Y-60830000D02*
X89620000Y-60830000D01*
X89620000Y-60830000D02*
X89620000Y-58170000D01*
%TO.C,R1*%
X90140000Y-92250000D02*
X91090000Y-92250000D01*
X95880000Y-92250000D02*
X94930000Y-92250000D01*
X91090000Y-91330000D02*
X94930000Y-91330000D01*
X94930000Y-93170000D01*
X91090000Y-93170000D01*
X91090000Y-91330000D01*
%TO.C,U1*%
X75640000Y-68890000D02*
X85860000Y-68890000D01*
X75640000Y-73510000D02*
X75640000Y-68890000D01*
X78900000Y-73510000D02*
X78900000Y-72130000D01*
X82600000Y-73510000D02*
X82600000Y-72130000D01*
X85860000Y-68890000D02*
X85860000Y-73510000D01*
X85860000Y-72130000D02*
X75640000Y-72130000D01*
X85860000Y-73510000D02*
X75640000Y-73510000D01*
%TO.C,J2*%
X99670000Y-105520000D02*
X99670000Y-102920000D01*
X99670000Y-108120000D02*
X99670000Y-106790000D01*
X101000000Y-108120000D02*
X99670000Y-108120000D01*
X102330000Y-102920000D02*
X99670000Y-102920000D01*
X102330000Y-105520000D02*
X99670000Y-105520000D01*
X102330000Y-105520000D02*
X102330000Y-102920000D01*
%TO.C,U2*%
X75600000Y-90140000D02*
X85820000Y-90140000D01*
X75600000Y-94760000D02*
X75600000Y-90140000D01*
X78860000Y-94760000D02*
X78860000Y-93380000D01*
X82560000Y-94760000D02*
X82560000Y-93380000D01*
X85820000Y-90140000D02*
X85820000Y-94760000D01*
X85820000Y-93380000D02*
X75600000Y-93380000D01*
X85820000Y-94760000D02*
X75600000Y-94760000D01*
%TO.C,R4*%
X90140000Y-95750000D02*
X91090000Y-95750000D01*
X95880000Y-95750000D02*
X94930000Y-95750000D01*
X91090000Y-94830000D02*
X94930000Y-94830000D01*
X94930000Y-96670000D01*
X91090000Y-96670000D01*
X91090000Y-94830000D01*
%TO.C,R3*%
X90320000Y-80750000D02*
X91270000Y-80750000D01*
X96060000Y-80750000D02*
X95110000Y-80750000D01*
X91270000Y-79830000D02*
X95110000Y-79830000D01*
X95110000Y-81670000D01*
X91270000Y-81670000D01*
X91270000Y-79830000D01*
%TO.C,J5*%
X91610000Y-102480000D02*
X95490000Y-102480000D01*
X91610000Y-109220000D02*
X91610000Y-102480000D01*
X96090000Y-102480000D02*
X97430000Y-102480000D01*
X97430000Y-102480000D02*
X97430000Y-109220000D01*
X97430000Y-103400000D02*
X91610000Y-103400000D01*
X97430000Y-104400000D02*
X91610000Y-104400000D01*
X97430000Y-107500000D02*
X91610000Y-107500000D01*
X97430000Y-109220000D02*
X91610000Y-109220000D01*
X95790000Y-102480000D02*
X95350000Y-101870000D01*
X96230000Y-101870000D01*
X95790000Y-102480000D01*
G36*
X95790000Y-102480000D02*
G01*
X95350000Y-101870000D01*
X96230000Y-101870000D01*
X95790000Y-102480000D01*
G37*
%TO.C,D1*%
X91990000Y-84455000D02*
X91990000Y-87545000D01*
X91990000Y-84455170D02*
G75*
G02*
X97540000Y-86000000I2560000J-1544830D01*
G01*
X97540000Y-86000000D02*
G75*
G02*
X91990000Y-87544830I-2990000J0D01*
G01*
X97050000Y-86000000D02*
G75*
G02*
X92050000Y-86000000I-2500000J0D01*
G01*
X92050000Y-86000000D02*
G75*
G02*
X97050000Y-86000000I2500000J0D01*
G01*
%TO.C,SW1*%
X88170000Y-70350000D02*
X89370000Y-70350000D01*
X88170000Y-72650000D02*
X88170000Y-70350000D01*
X91870000Y-70350000D02*
X91170000Y-70350000D01*
X94370000Y-70350000D02*
X93670000Y-70350000D01*
X96170000Y-70350000D02*
X97370000Y-70350000D01*
X97370000Y-70350000D02*
X97370000Y-72650000D01*
%TO.C,C3*%
X81235000Y-98830000D02*
X82765000Y-98830000D01*
X82765000Y-100670000D02*
X81235000Y-100670000D01*
%TO.C,J1*%
X99670000Y-60480000D02*
X99670000Y-63080000D01*
X99670000Y-60480000D02*
X102330000Y-60480000D01*
X99670000Y-63080000D02*
X102330000Y-63080000D01*
X101000000Y-57880000D02*
X102330000Y-57880000D01*
X102330000Y-57880000D02*
X102330000Y-59210000D01*
X102330000Y-60480000D02*
X102330000Y-63080000D01*
%TO.C,J8*%
X71700000Y-76400000D02*
X86400000Y-76400000D01*
X71700000Y-85600000D02*
X71700000Y-76400000D01*
X80500000Y-85600000D02*
X71700000Y-85600000D01*
X85550000Y-76200000D02*
X86600000Y-76200000D01*
X86400000Y-76400000D02*
X86400000Y-79000000D01*
X86400000Y-82900000D02*
X86400000Y-85600000D01*
X86400000Y-85600000D02*
X84500000Y-85600000D01*
X86600000Y-77250000D02*
X86600000Y-76200000D01*
%TO.C,C2*%
X77235000Y-63580000D02*
X78765000Y-63580000D01*
X78765000Y-65420000D02*
X77235000Y-65420000D01*
%TO.C,C1*%
X82985000Y-63580000D02*
X84515000Y-63580000D01*
X84515000Y-65420000D02*
X82985000Y-65420000D01*
%TO.C,J7*%
X91595000Y-57762500D02*
X95475000Y-57762500D01*
X91595000Y-64502500D02*
X91595000Y-57762500D01*
X96075000Y-57762500D02*
X97415000Y-57762500D01*
X97415000Y-57762500D02*
X97415000Y-64502500D01*
X97415000Y-58682500D02*
X91595000Y-58682500D01*
X97415000Y-59682500D02*
X91595000Y-59682500D01*
X97415000Y-62782500D02*
X91595000Y-62782500D01*
X97415000Y-64502500D02*
X91595000Y-64502500D01*
X95775000Y-57762500D02*
X95335000Y-57152500D01*
X96215000Y-57152500D01*
X95775000Y-57762500D01*
G36*
X95775000Y-57762500D02*
G01*
X95335000Y-57152500D01*
X96215000Y-57152500D01*
X95775000Y-57762500D01*
G37*
%TO.C,J4*%
X82380000Y-105920000D02*
X83710000Y-105920000D01*
X82380000Y-107250000D02*
X82380000Y-105920000D01*
X84980000Y-105920000D02*
X90120000Y-105920000D01*
X84980000Y-108580000D02*
X84980000Y-105920000D01*
X84980000Y-108580000D02*
X90120000Y-108580000D01*
X90120000Y-108580000D02*
X90120000Y-105920000D01*
%TD*%
M02*
